# Made in Blockbench 4.8.1
mtllib CanoRetoEsgoto.mtl

o CanoCentralreto.002
v -0.6313219999999999 -3.3333333249174757e-7 -1.564311
v -0.31566099999999997 -0.6267093333333325 1.5643109999999991
v -0.6313219999999999 -3.3333333249174757e-7 1.5643109999999991
v -0.31566099999999997 -0.6267093333333325 -1.564311
v 0.315661 -0.6267093333333325 1.5643109999999991
v 0.315661 -0.6267093333333325 -1.564311
v 0.6313219999999999 -3.3333333249174757e-7 1.5643109999999991
v 0.6313219999999999 -3.3333333249174757e-7 -1.564311
v 0.315661 0.6267096666666676 1.5643109999999991
v 0.315661 0.6267096666666676 -1.564311
v -0.31566099999999997 0.6267096666666676 1.5643109999999991
v -0.31566099999999997 0.6267096666666676 -1.564311
vt 0.0036796875000000007 0.6892773437499999
vt 0.39475781249999997 0.6015625
vt 0.39475781249999997 0.6892773437499999
vt 0.0035109374999999984 0.1953125
vt 0.0824265625 0.5863906249999999
vt 0.0035109374999999984 0.5863906249999999
vt 0.39475781249999997 0.703125
vt 0.0036796875000000007 0.7908398437499999
vt 0.0036796875000000007 0.703125
vt 0.39475781249999997 0.9122851562500001
vt 0.0036796875000000007 1
vt 0.0036796875000000007 0.9122851562500001
vt 0.4886765625 1
vt 0.4097609375 0.6089218750000001
vt 0.4886765625 0.6089218750000001
vt 0.0036796875000000007 0.8984375
vt 0.39475781249999997 0.8107226562500001
vt 0.39475781249999997 0.8984375
vt 0.0036796875000000007 0.8984375
vt 0.0036796875000000007 0.8107226562500001
vt 0.39475781249999997 0.8107226562500001
vt 0.4886765625 1
vt 0.4097609375 1
vt 0.4097609375 0.6089218750000001
vt 0.39475781249999997 0.9122851562500001
vt 0.39475781249999997 1
vt 0.0036796875000000007 1
vt 0.39475781249999997 0.703125
vt 0.39475781249999997 0.7908398437499999
vt 0.0036796875000000007 0.7908398437499999
vt 0.0035109374999999984 0.1953125
vt 0.0824265625 0.1953125
vt 0.0824265625 0.5863906249999999
vt 0.0036796875000000007 0.6892773437499999
vt 0.0036796875000000007 0.6015625
vt 0.39475781249999997 0.6015625
vn -0.8931085496509786 -0.4498412148084319 0
vn 0 -1 0
vn 0.8931085496509786 -0.4498412148084318 0
vn 0.8931088380248933 0.4498406422743784 0
vn 0 1 0
vn -0.8931088380248933 0.44984064227437853 0
vn -0.8931088380248933 0.44984064227437853 0
vn 0 1 0
vn 0.8931088380248933 0.4498406422743784 0
vn 0.8931085496509786 -0.4498412148084318 0
vn 0 -1 0
vn -0.8931085496509786 -0.4498412148084319 0
usemtl m_268e9bd6-2d54-10cf-56b7-04383e1421d5
f 1/1/1 2/2/1 3/3/1
f 4/4/2 5/5/2 2/6/2
f 6/7/3 7/8/3 5/9/3
f 8/10/4 9/11/4 7/12/4
f 10/13/5 11/14/5 9/15/5
f 12/16/6 3/17/6 11/18/6
f 12/19/7 1/20/7 3/21/7
f 10/22/8 12/23/8 11/24/8
f 8/25/9 10/26/9 9/27/9
f 6/28/10 8/29/10 7/30/10
f 4/31/11 6/32/11 5/33/11
f 1/34/12 4/35/12 2/36/12