# Made in Blockbench 4.8.1
mtllib CurvaCano.mtl

o CanoCurvadoUPDOWN.002
v 1.3413658095238095 -2.2145348809523817 -0.6313200238095291
v 0.7146558095238085 -2.2145338809523816 -0.31566102380953254
v 0.5974408095238086 -1.3030588809523813 -0.31566102380953254
v 1.2101398095238096 -1.1712798809523814 -0.6313200238095291
v 1.8228388095238088 -1.0394998809523814 -0.31566102380953254
v 0.8561808095238099 -0.32761188095238136 -0.6313230238095286
v 1.4259348095238096 -0.06656188095238136 -0.31566102380953254
v 1.9680768095238097 -2.2145328809523814 0.3156639761904714
v 1.9680768095238097 -2.2145338809523816 -0.31566102380953254
v 1.8228388095238088 -1.0394988809523813 0.3156639761904714
v 0.7146568095238095 -2.2145328809523814 0.3156639761904714
v 0.5974408095238086 -1.303057880952382 0.3156639761904714
v 1.3413668095238087 -2.2145338809523816 0.6313219761904705
v 1.2101398095238096 -1.1712788809523813 0.6313219761904705
v 1.4259348095238096 -0.06655988095238197 0.31565997619046726
v 0.7603838095238089 0.8008431190476184 -0.31566102380953254
v 0.7603838095238089 0.8008441190476185 0.31565997619046726
v 0.8561808095238099 -0.3276108809523812 0.6313219761904705
v 0.2864288095238088 -0.588659880952382 0.31565997619046726
v 0.2864288095238088 -0.5886608809523812 -0.31566102380953254
v 0.3285058095238096 0.3467001190476182 0.6313219761904705
v -0.08438919047619109 1.439413119047618 0.31565997619046726
v -0.4472631904761908 0.928445119047618 0.6313219761904705
v -0.10337419047619001 -0.10744388095238122 0.31565997619046726
v -0.10337419047619001 -0.10744388095238122 -0.31566102380953254
v 0.32850480952380856 0.3466991190476181 -0.6313230238095286
v -0.8101391904761908 0.41747711904761875 -0.31566102380953254
v -0.8101391904761908 0.41747711904761875 0.31565997619046726
v -1.4614111904761904 0.6465041190476182 0.31565997619046726
v -1.4614111904761904 0.6465041190476182 -0.31566102380953254
v -0.44726419047619004 0.9284441190476187 -0.6313230238095286
v -0.08438919047619109 1.4394111190476178 -0.31566102380953254
v -1.2773001904761907 1.2240011190476192 0.6313219761904705
v -2.011627190476191 1.2534241190476187 0.6313219761904705
v -2.007763190476191 0.6481081190476186 0.31565997619046726
v -1.2773011904761908 1.2240001190476182 -0.6313230238095286
v -1.0931901904761911 1.7429741190476182 -0.31566102380953254
v -1.0931901904761911 1.7429751190476175 0.31565997619046726
v -2.007763190476191 0.6481081190476186 -0.31566102380953254
v -2.0116281904761903 1.2534221190476185 -0.6313230238095286
v -2.0154921904761904 1.7998271190476185 -0.31566102380953254
v -2.0154941904761907 1.7998271190476185 0.31565997619046726
vt 0.4695805101980416 0.1243673242822414
vt 0.5560046042152949 0.109375
vt 0.5884043575525366 0.21958395321587898
vt 0.5063399074201383 0.2505569066969904
vt 0.4091245524044039 0.3041381281455937
vt 0.4913314616879415 0.27354446552947465
vt 0.548320410377389 0.37269731949957496
vt 0.4735698643023002 0.41858752585887005
vt 0.0035112233618893873 0.3261781250066971
vt 0.08242684836188939 0.3261781250066971
vt 0.08242684836188939 0.4741750000066971
vt 0.0035112233618893873 0.4741750000066971
vt 0.1910109375 0.328125
vt 0.2699265625 0.328125
vt 0.2699265625 0.44299765625
vt 0.1910109375 0.44299765625
vt 0.36866264241350566 0.16177950195207902
vt 0.4551550648830142 0.14718653551468297
vt 0.49133119295144967 0.2735445655409413
vt 0.4091245524044039 0.3041381281455937
vt 0.46513965395342577 0.5110127969517937
vt 0.5517373763118234 0.5249673050558008
vt 0.512326757850204 0.6676205481464823
vt 0.42989666316689784 0.637634262725024
vt 0.3795923189149162 0.421875
vt 0.4661571747291132 0.43603196125424526
vt 0.4306182015436081 0.5625706722444421
vt 0.34825844908719006 0.5323917226571302
vt 0.003512004608022243 0.6055226562566971
vt 0.08242684836188939 0.6055226562566971
vt 0.08242549539197776 0.7421875
vt 0.0035106516381106095 0.7421875
vt 0.42989666316689784 0.637634262725024
vt 0.5123268091136355 0.6676205667950099
vt 0.4487270613821601 0.7825439109041679
vt 0.3736415374271575 0.7372042712744971
vt 0.34825844908719006 0.5323917226571302
vt 0.4306183308292333 0.5625707196183627
vt 0.37412795452978986 0.6620096255836864
vt 0.2991482941120952 0.6164961248464853
vt 0.5063399074201383 0.2505569066969904
vt 0.5884043871605377 0.21958394204115916
vt 0.6383246278178922 0.303212659001142
vt 0.5637851472623642 0.3494434211979962
vt 0.0035112233618893873 0.4741750000066971
vt 0.08242684836188939 0.4741750000066971
vt 0.08242684836188939 0.6055226562566971
vt 0.0035112233618893873 0.6055226562566971
vt 0.1910109375 0.44299765625
vt 0.2699265625 0.44299765625
vt 0.2699265625 0.54039296875
vt 0.1910109375 0.54039296875
vt 0.30051833409490075 0.8153577827361695
vt 0.3562060425599886 0.8831273360510484
vt 0.24599122972163123 0.9564394449454655
vt 0.19936896463269685 0.8821413953086312
vt 0.1910109375 0.54039296875
vt 0.2699265625 0.54039296875
vt 0.2699265625 0.61780390625
vt 0.1910109375 0.61780390625
vt 0.4735698643023002 0.41858752585887005
vt 0.5483220749613594 0.37269629759263356
vt 0.6220189094604942 0.4503117580058702
vt 0.5668292675465446 0.5184858960962422
vt 0.3736415374271575 0.7372042712744971
vt 0.44872873157204063 0.7825449194315551
vt 0.3562051000193453 0.8831261890195017
vt 0.30051833409490075 0.8153577827361695
vt 0.2991482941120952 0.6164961248464853
vt 0.3741302428625737 0.6620110146275319
vt 0.300825378285858 0.739995289819969
vt 0.2452943993314408 0.6721003234894358
vt 0.5637851472623642 0.3494434211979962
vt 0.6383267178208439 0.30321136274271987
vt 0.6927139524862389 0.3582971864013218
vt 0.6378341360109099 0.42671787735920197
vt 0.4956984375 0.844421875
vt 0.5746140625 0.844421875
vt 0.5746140625 0.93071796875
vt 0.4956984375 0.93071796875
vt 0.2452943993314408 0.6721003234894358
vt 0.3008267541227351 0.7399969719872963
vt 0.19952495838541387 0.806549029518739
vt 0.15307253123186695 0.7321446043360649
vt 0.6378341360109099 0.42671787735920197
vt 0.6927166261855628 0.35829385300177874
vt 0.7855076036446242 0.41745596277469654
vt 0.7397670767987689 0.4922999400569801
vt 0.09725741269304077 0.31574921879013473
vt 0.17617303766210315 0.3157468750169322
vt 0.17617565859940598 0.4481179687409851
vt 0.0972600336148749 0.4481195312641877
vt 0.4956984375 0.734375
vt 0.5746140625 0.734375
vt 0.5746140625 0.844421875
vt 0.4956984375 0.844421875
vt 0.5668292675465446 0.5184858960962422
vt 0.6220199362260613 0.4503104896726263
vt 0.7236555344129383 0.5163525765883499
vt 0.6775781148303115 0.5909891022736613
vt 0.0708709502708868 0.7584113712606171
vt 0.09473266902088681 0.8404371525106171
vt 0.0029631377708868034 0.8446160587606171
vt 0.002592825270886806 0.7592887150106171
vt 0.6775781148303115 0.5909891022736613
vt 0.7236558207349484 0.5163521128019604
vt 0.8286179178261402 0.5497119153702166
vt 0.8046803263364943 0.62529375
vt 0.19936896463269685 0.8821413953086312
vt 0.24599115239430683 0.9564393217153012
vt 0.11911152131952374 0.9916916606114401
vt 0.09467981118817664 0.91625078125
vt 0.15307253123186695 0.7321446043360649
vt 0.19952525920537195 0.8065495113522498
vt 0.09473245097674934 0.8404364029736323
vt 0.0708709502708868 0.7584113712606171
vt 0.7397670767987689 0.4922999400569801
vt 0.7855074746966124 0.4174561737688134
vt 0.8679559927819556 0.4429367362313421
vt 0.8448788648019584 0.5251851859624134
vt 0.0972600336148749 0.4481195312641877
vt 0.17617487735327328 0.4481179687564537
vt 0.1761777435453576 0.5798039062345316
vt 0.09726211855695924 0.57980546875
vt 0.8448788648019584 0.5251851859624134
vt 0.8679562085519584 0.44293596721241335
vt 0.9362499585519585 0.4431640922124134
vt 0.9366694898019584 0.5284836234624134
vt 0.09726211855695924 0.57980546875
vt 0.17617696230695923 0.57980390625
vt 0.17618008730695922 0.6953101562499999
vt 0.09726524355695923 0.6953125
vt 0.4956984375 0.93071796875
vt 0.5746140625 0.93071796875
vt 0.5746140625 0.9990125
vt 0.4956984375 0.9990125
vt 0.8046803263364943 0.62529375
vt 0.8286357950864943 0.5496554687499999
vt 0.9203998575864943 0.55394375
vt 0.9199350138364943 0.6328125
vt 0.09467981118817664 0.91625078125
vt 0.11912434243817663 0.99173125
vt 0.003914186188176627 1
vt 0.0029501236881766535 0.92113203125
vn -0.44908763566909776 -0.057752332444612545 -0.8916192929644057
vn 0.42054831910055424 0.17643693091794999 -0.8899489427545567
vn 0.9924475495764554 0.12266972462531815 -1.94305190896074e-7
vn -0.9918321473349323 -0.12754995691819565 0.000001773067921103251
vn 0.4491193428058319 0.05649254964417906 -0.8916840291001952
vn 0.44914343198800555 0.05551557978328656 0.8917332549049415
vn -0.4491189137494146 -0.05649292617298169 0.8916842213502267
vn 0.7933675932452156 0.6087428537441532 -0.0000019284733235831095
vn 0.42166892755078156 0.1720206972415143 0.8902832107024803
vn -0.4205467438490049 -0.1764394345951841 0.8899491907731202
vn -0.41901402509325575 -0.18241706999782137 -0.8894668399375878
vn 0.925918732662674 0.3777227826117854 -5.983016396698695e-7
vn -0.9168802740912132 -0.3991623266066355 6.32261238360432e-7
vn 0.27264573280895094 0.36068733941393344 0.8919467178971893
vn -0.7770496306163812 -0.629439331117743 9.97019472893616e-7
vn 0.36213850356675753 0.28338822443663675 -0.8880015869834244
vn 0.36418159229069275 0.2794331394951637 0.888419320134638
vn -0.3621397280656012 -0.283388645605687 0.8880009532080172
vn -0.358495226486532 -0.29039396939453344 -0.887216160315882
vn -0.3317460450189985 -0.9433687304624065 0
vn -0.2713550805642316 -0.3618576171591222 0.8918662933175026
vn -0.2698012697439324 -0.3632662713257245 -0.8917650424644752
vn 0.6030104520608505 0.7977332854430559 -0.0000012635937748856156
vn -0.5962475612217403 -0.8028006263930834 0
vn 0.2713552886074874 0.36185789458910916 -0.8918661174572586
vn -0.019026880026551687 -0.47486496037990167 0.8798529691032756
vn 0.15555577034482126 0.43686152522603083 -0.8859765290850631
vn 0.1352457987173358 0.44945051420087917 0.8830078194522828
vn -0.15555551169443044 -0.4368607988344319 0.8859769326699347
vn -0.15397555385471678 -0.43785216114287545 -0.8857635202454698
vn 0.2881513213067181 0.9575848871092264 -0.0000030335911121064432
vn -0.0014070987871028394 -0.479283813298642 -0.8776588439609755
vn 0.06152571707123401 0.9981054985002193 -0.0000015809794031138473
vn -0.002935823585342906 -0.999995690460652 0
vn 0.020602606408673958 0.514208760664203 -0.8574175663382188
vn 0.031512396215445555 0.5112222802907507 0.8588706241449211
usemtl m_6cdfa588-4657-a6e2-3c5f-a65779623d0c
f 1/1/1 2/2/1 3/3/1 4/4/1
f 5/5/2 4/6/2 6/7/2 7/8/2
f 8/9/3 9/10/3 5/11/3 10/12/3
f 2/13/4 11/14/4 12/15/4 3/16/4
f 9/17/5 1/18/5 4/19/5 5/20/5
f 13/21/6 8/22/6 10/23/6 14/24/6
f 11/25/7 13/26/7 14/27/7 12/28/7
f 15/29/8 7/30/8 16/31/8 17/32/8
f 14/33/9 10/34/9 15/35/9 18/36/9
f 12/37/10 14/38/10 18/39/10 19/40/10
f 4/41/11 3/42/11 20/43/11 6/44/11
f 10/45/12 5/46/12 7/47/12 15/48/12
f 3/49/13 12/50/13 19/51/13 20/52/13
f 21/53/14 17/54/14 22/55/14 23/56/14
f 20/57/15 19/58/15 24/59/15 25/60/15
f 7/61/16 6/62/16 26/63/16 16/64/16
f 18/65/17 15/66/17 17/67/17 21/68/17
f 19/69/18 18/70/18 21/71/18 24/72/18
f 6/73/19 20/74/19 25/75/19 26/76/19
f 27/77/20 28/78/20 29/79/20 30/80/20
f 24/81/21 21/82/21 23/83/21 28/84/21
f 26/85/22 25/86/22 27/87/22 31/88/22
f 17/89/23 16/90/23 32/91/23 22/92/23
f 25/93/24 24/94/24 28/95/24 27/96/24
f 16/97/25 26/98/25 31/99/25 32/100/25
f 29/101/26 33/102/26 34/103/26 35/104/26
f 32/105/27 31/106/27 36/107/27 37/108/27
f 23/109/28 22/110/28 38/111/28 33/112/28
f 28/113/29 23/114/29 33/115/29 29/116/29
f 31/117/30 27/118/30 30/119/30 36/120/30
f 22/121/31 32/122/31 37/123/31 38/124/31
f 36/125/32 30/126/32 39/127/32 40/128/32
f 38/129/33 37/130/33 41/131/33 42/132/33
f 30/133/34 29/134/34 35/135/34 39/136/34
f 37/137/35 36/138/35 40/139/35 41/140/35
f 33/141/36 38/142/36 42/143/36 34/144/36