# Made in Blockbench 4.8.3
mtllib materials.mtl

o PilastraEsgoro
v -0.49893591666666665 -0.10228377083333334 0.4935098958333333
v -0.49893591666666665 -3.9454617708333335 -0.49346610416666664
v -0.49893591666666665 -3.9454617708333335 0.49351089583333335
v -0.49893591666666665 -0.10228377083333334 -0.49346610416666664
v 0.4989580833333333 -3.9454617708333335 -0.49346610416666664
v 0.4989580833333333 -0.10228377083333334 -0.49346610416666664
v 0.4989580833333333 -3.9454617708333335 0.49351089583333335
v 0.4989580833333333 -0.10228377083333334 0.4935098958333333
v 0.7052390833333333 -0.10228377083333334 0.6997948958333333
v -0.00019691666666666713 -0.11069377083333334 0.7599038958333333
v 0.4989580833333333 0.09358322916666666 0.4935098958333333
v -0.49893591666666665 0.2814012291666666 0.4935098958333333
v -0.49893591666666665 0.09358322916666666 0.4935098958333333
v -0.7052159166666667 -0.10228377083333334 0.6997948958333333
v -0.7657769166666667 -0.11069477083333334 -0.0004591041666666638
v 0.4989580833333333 0.09358322916666666 -0.49346610416666664
v 0.7055460833333334 0.09358322916666666 -0.7000551041666666
v -0.00005991666666666715 0.10199422916666666 -0.7601681041666667
v -0.7055239166666667 0.09358322916666666 0.7000988958333333
v -0.00019691666666666713 0.10199422916666666 0.7602348958333334
v 0.7052390833333333 -0.10228377083333334 -0.6997511041666666
v 0.7661450833333333 0.10199422916666666 -0.00004510416666666385
v 0.7055460833333334 0.09358322916666666 0.7000988958333333
v -0.7052159166666667 -0.10228377083333334 -0.6997511041666666
v -0.7661109166666666 0.10199422916666666 -0.0004591041666666638
v -0.7055239166666667 0.09358322916666666 -0.7000551041666666
v -0.00005991666666666715 -0.11069477083333334 -0.7598381041666666
v -0.49893591666666665 0.09358322916666666 -0.49346610416666664
v 0.7658110833333334 -0.11069477083333334 -0.00004510416666666385
v 0.6947910833333333 0.5109552291666667 0.6872018958333334
v -0.6947689166666666 0.5109552291666667 0.6872018958333334
v 0.4989580833333333 0.2814002291666666 -0.49346610416666664
v 0.4989580833333333 0.2814012291666666 0.4935098958333333
v -0.49893591666666665 0.2814002291666666 -0.49346610416666664
v 0.6947910833333333 0.5109552291666667 -0.6871581041666667
v 0.6947910833333333 0.9927102291666667 0.6872008958333333
v -0.6947689166666666 0.5109552291666667 -0.6871581041666667
v -0.6947689166666666 0.9927092291666667 -0.6871581041666667
v -0.6947689166666666 0.9927102291666667 0.6872008958333333
v 0.6947910833333333 0.9927092291666667 -0.6871581041666667
v -0.6128429166666667 0.9927092291666667 -0.6052331041666666
v 0.6128650833333333 1.1937872291666667 -0.6052331041666666
v 0.6128650833333333 0.9927092291666667 -0.6052331041666666
v -0.6128429166666667 0.9927102291666667 0.6052768958333333
v 0.6128650833333333 0.9927102291666667 0.6052768958333333
v 0.6128650833333333 1.1937882291666666 0.6052768958333333
v -0.6128429166666667 1.1937872291666667 -0.6052331041666666
v -0.6128429166666667 1.1937882291666666 0.6052768958333333
vt 0.25699882812499997 0.5859375
vt 0.133626171875 0.10553984374999992
vt 0.25699882812499997 0.10553984374999992
vt 0.124868359375 0.7421875
vt 0.00013164062500000545 0.2617898437499999
vt 0.124868359375 0.2617898437499999
vt 0.608561328125 1
vt 0.485188671875 0.5196023437499999
vt 0.608561328125 0.5196023437499999
vt 0.476430859375 0.640625
vt 0.351694140625 0.16022734374999992
vt 0.476430859375 0.16022734374999992
vt 0.632680859375 0.359375
vt 0.507944140625 0.48274765625000005
vt 0.507944140625 0.359375
vt 0.18573121354535224 0.7184046224970538
vt 0.14926558854535224 0.7184046224970538
vt 0.20630386979535226 0.6507304037470538
vt 0.460805859375 0.81246015625
vt 0.336069140625 0.8359375
vt 0.336069140625 0.81246015625
vt 0.2739473527314655 0.630216404510676
vt 0.273958615670355 0.59375
vt 0.3411958364593273 0.6503129569469526
vt 0.12454869087062194 0.7880708047395437
vt 0.12456166102910576 0.7515504945427143
vt 0.1922304566131083 0.8086284369085983
vt 0.12551308461036328 0.963479689803421
vt 0.12552605547405216 1
vt 0.05784018042718035 0.942996692543673
vt 0.18753423303457686 0.9698015625
vt 0.2760203185958813 0.995336205673605
vt 0.1875 0.994285156448908
vt 0.6759229399960119 0.5010515625
vt 0.763733877496012 0.5265859374999999
vt 0.675888564996012 0.525534375
vt 0.4844156492579419 0.2979033579956101
vt 0.5721512901403915 0.32346099855460786
vt 0.484375 0.32238694213260877
vt 0.3750350986214653 0.76667578125
vt 0.463485158724882 0.7922107293097452
vt 0.375 0.7911593750826816
vt 0.3611430128499791 0.7174960078935817
vt 0.3976094114546478 0.7175196213528521
vt 0.3405499938401163 0.7851303435184176
vt 0.037295511461393135 0.8752929062572302
vt 0.0007751989613931365 0.8752929062572302
vt 0.05730410521139313 0.8080444687572302
vt 0.21270363063039785 0.876194977539996
vt 0.24922393378881444 0.8761688563799319
vt 0.19279076304828435 0.9434092374149371
vt 0.27298475258409677 0.8056263642556025
vt 0.27299800411523445 0.8420919868478132
vt 0.20576966691123058 0.7856242262551081
vt 0.6446625 0.6796875
vt 0.79387890625 0.71723203125
vt 0.62018359375 0.71723203125
vt 0.796743359375 0.31246015625
vt 0.672006640625 0.3359375
vt 0.672006640625 0.31246015625
vt 0.796061328125 0.27339765625
vt 0.672688671875 0.296875
vt 0.672688671875 0.27339765625
vt 0.608561328125 0.26558515625
vt 0.485188671875 0.2890625
vt 0.485188671875 0.26558515625
vt 0.789022265625 0.79915546875
vt 0.617227734375 0.859375
vt 0.617227734375 0.79915546875
vt 0.7694 0.6328125
vt 0.62018359375 0.67035703125
vt 0.6446632812499999 0.6328125
vt 0.7648114218354616 0.5859381130457894
vt 0.6172276406645384 0.6236553484440004
vt 0.6414387655869848 0.5859375
vt 0.764811328125 0.5390625
vt 0.617227734375 0.5767796875
vt 0.641438671875 0.5390625
vt 0.789022265625 0.72884296875
vt 0.617227734375 0.78906171875
vt 0.617227734375 0.72884296875
vt 0.79387890625 0.86946875
vt 0.62018359375 0.9296875
vt 0.62018359375 0.86946875
vt 0.79387890625 0.93978125
vt 0.62018359375 1
vt 0.62018359375 0.93978125
vt 0.826606640625 0.46705234375000004
vt 0.673393359375 0.4921875
vt 0.673393359375 0.46705234375000004
vt 0.49761198867940326 0.4975721386768541
vt 0.4873705872570191 0.33601829871951283
vt 0.4976111019283963 0.3462584690497019
vt 0.6508255524271728 0.4975718561790846
vt 0.48737164617717277 0.5078124811790846
vt 0.49761227117717277 0.4975718561790846
vt 0.6508203332683701 0.3462581866474119
vt 0.6610668379695224 0.5078123604806422
vt 0.6508255524271728 0.4975718561790846
vt 0.4976070523191809 0.34626778750337106
vt 0.6610610977864948 0.3360169199067943
vt 0.6508203332683701 0.3462581866474119
vt 0.290580859375 1
vt 0.443794140625 0.84868671875
vt 0.443794140625 1
vt 0.825656640625 0.38892734375000004
vt 0.674343359375 0.4140625
vt 0.674343359375 0.38892812499999996
vt 0.825656640625 0.34986562499999996
vt 0.674343359375 0.375
vt 0.674343359375 0.34986484375000004
vt 0.826606640625 0.42799062499999996
vt 0.673393359375 0.453125
vt 0.673393359375 0.42799062499999996
vt 0.7637338774959967 0.5265859373966904
vt 0.8515215915476528 0.5010281345640422
vt 0.8515625 0.5255109370190167
vt 0.23180936890357312 0.7375234374999999
vt 0.32027748572812514 0.711988794268102
vt 0.3203125 0.7364723882215582
vt 0.5721510805488552 0.32346093750000005
vt 0.6600130086658198 0.29792650165376733
vt 0.6600471829179569 0.3224100956847946
vt 0.08333749752781962 0.8937734375
vt 0.17183990131562465 0.8682384893360544
vt 0.171875 0.8927220831686459
vt 0.25699882812499997 0.5859375
vt 0.133626171875 0.5859375
vt 0.133626171875 0.10553984374999992
vt 0.124868359375 0.7421875
vt 0.0001316406249999985 0.7421875
vt 0.0001316406249999985 0.2617898437499999
vt 0.608561328125 1
vt 0.485188671875 1
vt 0.485188671875 0.5196023437499999
vt 0.476430859375 0.640625
vt 0.351694140625 0.640625
vt 0.351694140625 0.16022734374999992
vt 0.632680859375 0.359375
vt 0.632680859375 0.48274765625000005
vt 0.507944140625 0.48274765625000005
vt 0.273958615670355 0.59375
vt 0.2739473527314655 0.630216404510676
vt 0.20630351351161436 0.6507306694027174
vt 0.2739473527314655 0.630216404510676
vt 0.18573121354535224 0.7184046224970538
vt 0.20630381701821593 0.6507305773586393
vt 0.460805859375 0.81246015625
vt 0.460805859375 0.8359375
vt 0.336069140625 0.8359375
vt 0.39760941145464773 0.7175196213528521
vt 0.3611430128499791 0.7174960078935817
vt 0.34119588700408987 0.650313545995229
vt 0.3611430128499791 0.7174960078935817
vt 0.2739473527314655 0.630216404510676
vt 0.3411957000022947 0.6503129161681014
vt 0.24922480103860686 0.8763449439115931
vt 0.21270449751872544 0.876319333105397
vt 0.19223086819279422 0.8086291775529202
vt 0.21270449751872544 0.876319333105397
vt 0.12454869087062194 0.7880708047395437
vt 0.19223066315133983 0.8086284996424373
vt 0.0007751989613931365 0.8752929062572302
vt 0.037295511461393135 0.8752929062572302
vt 0.057839261461393135 0.9429960312572302
vt 0.037295511461393135 0.8752929062572302
vt 0.12551308461036328 0.963479689803421
vt 0.05783938947750987 0.9429964531418011
vt 0.18753423303457686 0.9698015625
vt 0.2760162642845769 0.96875
vt 0.27601938928457687 0.9953359375
vt 0.6759229399960119 0.5010515625
vt 0.7637299712460119 0.5
vt 0.763733877496012 0.5265859374999999
vt 0.4844156492579419 0.2979033579956101
vt 0.57215498679884 0.2968750001033096
vt 0.5721510805488552 0.32346093750000005
vt 0.3750350986214653 0.76667578125
vt 0.4634827548714653 0.765625
vt 0.4634858798714653 0.7922109374999999
vt 0.27299800411523445 0.8420919868478132
vt 0.27298475258409677 0.8056263642556025
vt 0.3406374319974754 0.785039278055389
vt 0.27298475258409677 0.8056263642556025
vt 0.3611404067757096 0.717377683593706
vt 0.34063739527354187 0.7850392892306861
vt 0.12456166102910576 0.7515504945427143
vt 0.12454869087062194 0.7880708047395438
vt 0.05730487448748145 0.8080437994139213
vt 0.12454869087062194 0.7880708047395438
vt 0.037295511461393135 0.8752929062572302
vt 0.05730424909416493 0.8080439851704422
vt 0.12552605547405216 1
vt 0.12551308461036328 0.963479689803421
vt 0.192790335626039 0.9434097000289299
vt 0.12551308461036328 0.963479689803421
vt 0.21270363063039785 0.876194977539996
vt 0.192790654144993 0.9434096050091119
vt 0.14926558854535224 0.7184046224970538
vt 0.18573121354535224 0.7184046224970538
vt 0.20576949479535225 0.7856241537470539
vt 0.18573121354535224 0.7184046224970538
vt 0.27298475258409677 0.8056263642556025
vt 0.20576950175947062 0.785624177108577
vt 0.6446625 0.6796875
vt 0.7693992187500001 0.6796875
vt 0.79387890625 0.71723203125
vt 0.796743359375 0.31246015625
vt 0.796743359375 0.3359375
vt 0.672006640625 0.3359375
vt 0.796061328125 0.27339765625
vt 0.796061328125 0.296875
vt 0.672688671875 0.296875
vt 0.608561328125 0.26558515625
vt 0.608561328125 0.2890625
vt 0.485188671875 0.2890625
vt 0.789022265625 0.79915546875
vt 0.789022265625 0.85937421875
vt 0.617227734375 0.859375
vt 0.7694 0.6328125
vt 0.79387890625 0.67035703125
vt 0.62018359375 0.67035703125
vt 0.7648114218354616 0.5859381130457894
vt 0.7890223593354616 0.6236553005457894
vt 0.6172278280854616 0.6236553005457894
vt 0.764811328125 0.5390625
vt 0.789022265625 0.5767796875
vt 0.617227734375 0.5767796875
vt 0.789022265625 0.72884296875
vt 0.789022265625 0.7890625
vt 0.617227734375 0.78906171875
vt 0.79387890625 0.86946875
vt 0.79387890625 0.9296875
vt 0.62018359375 0.9296875
vt 0.79387890625 0.93978125
vt 0.79387890625 1
vt 0.62018359375 1
vt 0.826606640625 0.46705234375000004
vt 0.826606640625 0.4921875
vt 0.673393359375 0.4921875
vt 0.49761198867940326 0.4975721386768541
vt 0.48737164617717277 0.5078124811790846
vt 0.4873705413228272 0.33601757412677613
vt 0.6508255524271728 0.4975718561790846
vt 0.6610669586771728 0.5078124811790846
vt 0.48737164617717277 0.5078124811790846
vt 0.6508203332683701 0.3462581866474119
vt 0.661060977086408 0.33601704061280047
vt 0.6610668468184782 0.5078125
vt 0.49761138443091546 0.3462587515427218
vt 0.4873705872570191 0.33601829871951283
vt 0.6610658997324693 0.3360153783850476
vt 0.290580859375 1
vt 0.290580859375 0.84868671875
vt 0.443794140625 0.84868671875
vt 0.825656640625 0.38892734375000004
vt 0.825656640625 0.4140625
vt 0.674343359375 0.4140625
vt 0.825656640625 0.34986562499999996
vt 0.825656640625 0.375
vt 0.674343359375 0.375
vt 0.826606640625 0.42799062499999996
vt 0.826606640625 0.453125
vt 0.673393359375 0.453125
vt 0.7637338774959967 0.5265859373966904
vt 0.7637299712460119 0.5
vt 0.8515208712851068 0.5010283442554362
vt 0.23180936890357312 0.7375234374999999
vt 0.2318124939035731 0.7109375
vt 0.3202765564035731 0.7119890625
vt 0.5721510805488552 0.32346093750000005
vt 0.5721549867988552 0.296875
vt 0.6600127992988553 0.29792656250000005
vt 0.08333749752781962 0.8937734375
vt 0.08334140377781962 0.8671875
vt 0.17184062252781962 0.86823828125
vn -1 0 0
vn 0 0 -1
vn 1 0 0
vn 0 2.6020132297507997e-7 0.9999999999999661
vn 0 -1 0
vn 0.010984328875080763 -0.9998793395792609 -0.01098411588181659
vn 0 0 1
vn 0.011054145631943544 -0.9998778013598377 0.011053877698123058
vn 0.010983126353796916 0.9998793642429106 0.010983073189657718
vn -0.01098679864620075 0.9998792835535754 -0.010986745464285715
vn 0.08486595029831807 -0.001679490160602895 -0.9963909623198938
vn 0.9962755907013614 -0.0016953559607868016 0.08620947245413169
vn -0.9962712538683287 -0.0017005132385297889 -0.086259474670054
vn -0.08493152850355937 -0.0016800178917146466 0.9963853737414718
vn -0.01098997324075381 -0.9998792161212507 0.010989706862363703
vn -0.01105499423010559 0.9998777802253094 0.011054940718087866
vn 0.011063136059333416 0.9998776001221129 -0.011063082507904935
vn -0.011061902125824849 -0.9998776292067802 -0.011061687628365008
vn 0 -0.6448822435971755 0.7642819452879109
vn 0 0 -1
vn 1 0 0
vn -1 0 0
vn 1 0 0
vn 0 -0.6448806026218787 -0.7642833298993528
vn 0.7607732269550006 -0.6490177941690374 6.575821439950642e-7
vn -0.7607751708623539 -0.6490155155301945 6.575798352876157e-7
vn -1 0 0
vn 0 0.0000020757438947734877 0.9999999999978458
vn 0 0 -1
vn 0 0 -1
vn -8.260779239771521e-7 0.9999999999993175 -8.260980909105032e-7
vn 0 1 0
vn -8.260880074438282e-7 0.9999999999993175 -8.260980909105032e-7
vn 0 1 0
vn 0 0.9999999999996588 -8.260980908190697e-7
vn 1 0 0
vn -1 0 0
vn 0 0 1
vn 0.9962741731597629 -0.0016953791614876931 -0.08622585218094193
vn -0.08488290404295416 -0.001679947861219853 -0.9963895173958919
vn -0.9962814265573059 -0.0017003467593458197 0.08614190570121902
vn 0.08488183257624114 -0.0016795129545083035 0.9963896094072512
vn -1 0 0
vn 0 0 -1
vn 1 0 0
vn 0 2.6020132297507997e-7 0.9999999999999661
vn 0 -1 0
vn -0.010990318163829123 -0.9998792085390089 -0.010990051777078664
vn 0 -0.9995020466755804 -0.03155405982320035
vn 0 0 1
vn 0.011068137106399646 -0.9998774918061112 -0.011067868833449452
vn 0.031504996355282956 -0.9995035943930637 0
vn -0.010985163024392942 0.9998793194955591 0.010985109850395181
vn 0 0.9995030772096639 0.031521399848559374
vn 0.010980832419854647 0.9998794146326149 -0.010980779266819302
vn 0 0.9995031628425478 -0.03151868442279002
vn 0.0849043641671755 -0.001545956814583558 -0.9963879058694437
vn 0.9962725223529728 -0.0015645144904806096 0.08624739705553236
vn -0.9962680600944278 -0.0015645074830926149 -0.08629892671418936
vn -0.08496876128436422 -0.0015506402683977218 0.9963824090782409
vn 0.010987916246786616 -0.9998792607486641 0.010987703183960975
vn 0 -0.9995018461229984 0.03156041185913137
vn -0.011056941362570379 0.9998777371653864 -0.011056887841127506
vn -0.031464238646089576 0.9995048782704474 0
vn 0.01104915694557047 0.999877909268668 0.01104910346180829
vn 0.03146565044376555 0.9995048338263057 0
vn -0.011059953274498614 -0.9998776723234267 0.011059738814828265
vn -0.03150358102649689 -0.9995036390041344 0
vn 0 -0.6448822435971754 0.7642819452879109
vn 0 0 -1
vn 1 0 0
vn -1 0 0
vn 1 0 0
vn 0 -0.6448806026218789 -0.7642833298993525
vn 0.7607748969040214 -0.6490158366640029 0
vn -0.7607735009161407 -0.6490174730342774 0
vn -1 0 0
vn 0 0.0000020757438947734877 0.9999999999978458
vn 0 0 -1
vn 0 0 -1
vn 7.27603045413157e-7 0.9999999999994706 -7.276119267441958e-7
vn 0 1 0
vn 7.275941640821172e-7 0.9999999999994706 -7.276119267441959e-7
vn 0 1 0
vn 0 0.9999999999996588 -8.260980908190697e-7
vn 1 0 0
vn -1 0 0
vn 0 0 1
vn 0.9962711029686561 -0.0015645122615249342 -0.08626379130899148
vn -0.08492145793629849 -0.001545954554360541 -0.9963864491282934
vn -0.9962782463534147 -0.001564523479267786 0.0861812514950193
vn 0.08491889653303596 -0.0015506468841992584 0.996386660140456
usemtl m_02cf660c-d209-562b-2e03-5ac919561c59
f 1/1/1 2/2/1 3/3/1
f 4/4/2 5/5/2 2/6/2
f 6/7/3 7/8/3 5/9/3
f 8/10/4 3/11/4 7/12/4
f 5/13/5 3/14/5 2/15/5
f 8/16/6 9/17/6 10/18/6
f 11/19/7 12/20/7 13/21/7
f 1/22/8 14/23/8 15/24/8
f 16/25/9 17/26/9 18/27/9
f 13/28/10 19/29/10 20/30/10
f 21/31/11 18/32/11 17/33/11
f 9/34/12 22/35/12 23/36/12
f 24/37/13 25/38/13 26/39/13
f 14/40/14 20/41/14 19/42/14
f 4/43/15 24/44/15 27/45/15
f 11/46/16 23/47/16 22/48/16
f 28/49/17 26/50/17 25/51/17
f 6/52/18 21/53/18 29/54/18
f 12/55/19 30/56/19 31/57/19
f 28/58/20 32/59/20 16/60/20
f 16/61/21 33/62/21 11/63/21
f 13/64/22 34/65/22 28/66/22
f 35/67/23 36/68/23 30/69/23
f 34/70/24 35/71/24 32/72/24
f 32/73/25 30/74/25 33/75/25
f 12/76/26 37/77/26 34/78/26
f 31/79/27 38/80/27 37/81/27
f 30/82/28 39/83/28 31/84/28
f 37/85/29 40/86/29 35/87/29
f 41/88/30 42/89/30 43/90/30
f 41/91/31 39/92/31 44/93/31
f 43/94/32 38/95/32 41/96/32
f 45/97/33 40/98/33 43/99/33
f 44/100/34 36/101/34 45/102/34
f 46/103/35 47/104/35 48/105/35
f 43/106/36 46/107/36 45/108/36
f 44/109/37 47/110/37 41/111/37
f 45/112/38 48/113/38 44/114/38
f 22/115/39 21/116/39 17/117/39
f 18/118/40 24/119/40 26/120/40
f 25/121/41 14/122/41 19/123/41
f 20/124/42 9/125/42 23/126/42
f 1/127/43 4/128/43 2/129/43
f 4/130/44 6/131/44 5/132/44
f 6/133/45 8/134/45 7/135/45
f 8/136/46 1/137/46 3/138/46
f 5/139/47 7/140/47 3/141/47
f 14/142/48 1/143/48 10/144/48
f 1/145/49 8/146/49 10/147/49
f 11/148/50 33/149/50 12/150/50
f 24/151/51 4/152/51 15/153/51
f 4/154/52 1/155/52 15/156/52
f 26/157/53 28/158/53 18/159/53
f 28/160/54 16/161/54 18/162/54
f 23/163/55 11/164/55 20/165/55
f 11/166/56 13/167/56 20/168/56
f 21/169/57 27/170/57 18/171/57
f 9/172/58 29/173/58 22/174/58
f 24/175/59 15/176/59 25/177/59
f 14/178/60 10/179/60 20/180/60
f 21/181/61 6/182/61 27/183/61
f 6/184/62 4/185/62 27/186/62
f 17/187/63 16/188/63 22/189/63
f 16/190/64 11/191/64 22/192/64
f 19/193/65 13/194/65 25/195/65
f 13/196/66 28/197/66 25/198/66
f 9/199/67 8/200/67 29/201/67
f 8/202/68 6/203/68 29/204/68
f 12/205/69 33/206/69 30/207/69
f 28/208/70 34/209/70 32/210/70
f 16/211/71 32/212/71 33/213/71
f 13/214/72 12/215/72 34/216/72
f 35/217/73 40/218/73 36/219/73
f 34/220/74 37/221/74 35/222/74
f 32/223/75 35/224/75 30/225/75
f 12/226/76 31/227/76 37/228/76
f 31/229/77 39/230/77 38/231/77
f 30/232/78 36/233/78 39/234/78
f 37/235/79 38/236/79 40/237/79
f 41/238/80 47/239/80 42/240/80
f 41/241/81 38/242/81 39/243/81
f 43/244/82 40/245/82 38/246/82
f 45/247/83 36/248/83 40/249/83
f 44/250/84 39/251/84 36/252/84
f 46/253/85 42/254/85 47/255/85
f 43/256/86 42/257/86 46/258/86
f 44/259/87 48/260/87 47/261/87
f 45/262/88 46/263/88 48/264/88
f 22/265/89 29/266/89 21/267/89
f 18/268/90 27/269/90 24/270/90
f 25/271/91 15/272/91 14/273/91
f 20/274/92 10/275/92 9/276/92