# Made in Blockbench 4.8.1
mtllib PorcaPequenaEsgoto.mtl

o RoscaCentralCano
v -0.6313220416666666 8.333333667565057e-8 -0.1700777500000079
v -0.5178150416666666 1.0280630833333362 -0.1700777500000079
v -0.31566104166666664 0.6267100833333377 -0.1700777500000079
v -0.31566104166666664 -0.6267099166666625 -0.1700777500000079
v 0.5178149583333334 -1.0280629166666628 -0.1700777500000079
v -0.5178150416666666 -1.0280629166666628 -0.1700777500000079
v -0.31566104166666664 0.6267100833333377 0.1700772499999914
v 0.5178149583333334 1.0280630833333362 0.1700772499999914
v -0.5178150416666666 1.0280630833333362 0.1700772499999914
v 0.5178149583333334 1.0280630833333362 -0.1700777500000079
v 0.31566095833333335 0.6267100833333377 -0.1700777500000079
v -0.31566104166666664 -0.6267099166666625 0.1700772499999914
v 0.5178149583333334 -1.0280629166666628 0.1700772499999914
v 0.31566095833333335 -0.6267099166666625 0.1700772499999914
v -1.0356300416666666 8.333333667565057e-8 -0.1700777500000079
v -0.5178150416666666 -1.0280629166666628 0.0548392499999899
v 0.5632989583333334 -1.1183669166666625 0.0548392499999899
v 0.5178149583333334 -1.0280629166666628 0.0548392499999899
v 1.0356299583333333 8.333333667565057e-8 -0.05483875000000893
v 0.5632989583333334 -1.1183669166666625 -0.05483875000000893
v 0.5178149583333334 -1.0280629166666628 -0.05483875000000893
v 0.5178149583333334 1.0280630833333362 0.0548392499999899
v -0.5632990416666666 1.1183660833333366 0.0548392499999899
v -0.5178150416666666 1.0280630833333362 0.0548392499999899
v -1.1265970416666666 8.333333667565057e-8 0.0548392499999899
v -0.5632990416666666 -1.1183669166666625 0.0548392499999899
v -1.0356300416666666 8.333333667565057e-8 -0.05483875000000893
v -0.5632990416666666 1.1183660833333366 -0.05483875000000893
v -0.5178150416666666 1.0280630833333362 -0.05483875000000893
v -0.5632990416666666 -1.1183669166666625 -0.05483875000000893
v -0.5178150416666666 -1.0280629166666628 -0.05483875000000893
v 1.0356299583333333 8.333333667565057e-8 0.1700772499999914
v 0.6313219583333334 8.333333667565057e-8 0.1700772499999914
v -0.6313220416666666 8.333333667565057e-8 0.1700772499999914
v -0.5178150416666666 -1.0280629166666628 0.1700772499999914
v 0.6313219583333334 8.333333667565057e-8 -0.1700777500000079
v 0.31566095833333335 -0.6267099166666625 -0.1700777500000079
v -1.0356300416666666 8.333333667565057e-8 0.1700772499999914
v 1.0356299583333333 8.333333667565057e-8 -0.1700777500000079
v 0.31566095833333335 0.6267100833333377 0.1700772499999914
v -1.0356300416666666 8.333333667565057e-8 0.0548392499999899
v 1.0356299583333333 8.333333667565057e-8 0.0548392499999899
v 0.5178149583333334 1.0280630833333362 -0.05483875000000893
v 1.1265979583333332 8.333333667565057e-8 -0.05483875000000893
v 1.1265979583333332 8.333333667565057e-8 0.0548392499999899
v -1.1265970416666666 8.333333667565057e-8 -0.05483875000000893
v 0.5632989583333334 1.1183660833333366 0.0548392499999899
v 0.5632989583333334 1.1183660833333366 -0.05483875000000893
vt 0.21172812500000002 0.5043046875
vt 0.1975390625 0.6328125
vt 0.1722703125 0.58264375
vt 0.1722703125 0.425965625
vt 0.0680859375 0.37579687500000003
vt 0.1975390625 0.37579687500000003
vt 0.4996046875 0.94983125
vt 0.6037890625 1
vt 0.4743359375 1
vt 0.1722703125 0.58264375
vt 0.0680859375 0.6328125
vt 0.0933546875 0.58264375
vt 0.4996046875 0.793153125
vt 0.6037890625 0.742984375
vt 0.5785203125 0.793153125
vt 0.1722703125 0.425965625
vt 0.26226640625 0.5043046875
vt 0.21172812500000002 0.5043046875
vt 0.0798046875 0.73169609375
vt 0.21494375000000002 0.7204078125
vt 0.2092578125 0.73169609375
vt 0.21820234375000006 0.65707890625
vt 0.27724375000000007 0.5172828125
vt 0.2829296875 0.52857109375
vt 0.2092578125 0.9887117187500001
vt 0.07411875 1
vt 0.0798046875 0.9887117187500001
vt 0.0798046875 0.73169609375
vt 0.0037062499999999943 0.86020390625
vt 0.07411875 0.7204078125
vt 0.4771101562500001 0.65707890625
vt 0.4180687500000001 0.796875
vt 0.4123828125000001 0.7855867187500001
vt 0.2829296875 0.52857109375
vt 0.4180687500000001 0.5172828125
vt 0.4123828125000001 0.52857109375
vt 0.5785203125 0.793153125
vt 0.66851640625 0.8714921875
vt 0.617978125 0.8714921875
vt 0.460146875 0.8714921875
vt 0.4743359375 0.742984375
vt 0.4996046875 0.793153125
vt 0.053896875 0.5043046875
vt 0.0680859375 0.37579687500000003
vt 0.0933546875 0.425965625
vt 0.460146875 0.8714921875
vt 0.4743359375 1
vt 0.40960859375 0.8714921875
vt 0.0933546875 0.58264375
vt 0.0033585937499999996 0.5043046875
vt 0.053896875 0.5043046875
vt 0.617978125 0.8714921875
vt 0.6037890625 1
vt 0.5785203125 0.94983125
vt 0.29748515625 0.625
vt 0.31188984375 0.76888828125
vt 0.29748515625 0.76888828125
vt 0.4123828125 0.8125
vt 0.2829296875 0.8269046875
vt 0.2829296875 0.8125
vt 0.17907734375 0.97201328125
vt 0.16467265625 0.828125
vt 0.17907734375 0.828125
vt 0.01501484375 0.8125
vt 0.0006101562499999996 0.66861171875
vt 0.01501484375 0.66861171875
vt 0.3219921875 0.6796875
vt 0.4514453125 0.6652828125
vt 0.4514453125 0.6796875
vt 0.32092265625 0.85611171875
vt 0.33532734375 1
vt 0.32092265625 1
vt 0.20251484375 0.97201328125
vt 0.18811015625 0.828125
vt 0.20251484375 0.828125
vt 0.0485546875 0.6628421875
vt 0.1780078125 0.6484375
vt 0.1780078125 0.6628421875
vt 0.02404765625 0.6171875
vt 0.03845234375 0.76107578125
vt 0.02404765625 0.76107578125
vt 0.27404765625 0.59829921875
vt 0.28845234375 0.7421875
vt 0.27404765625 0.7421875
vt 0.4514453125 0.6418453125
vt 0.3219921875 0.65625
vt 0.3219921875 0.6418453125
vt 0.31188984375 1
vt 0.29748515625 0.85611171875
vt 0.31188984375 0.85611171875
vt 0.05068125 0.709021875
vt 0.19150625 0.6953125
vt 0.19150625 0.709021875
vt 0.0947078125 0.8125
vt 0.1084171875 0.96902734375
vt 0.0947078125 0.96902734375
vt 0.1318546875 0.9765625
vt 0.1181453125 0.8200359375
vt 0.1318546875 0.8200359375
vt 0.19150625 0.673790625
vt 0.05068125 0.6875
vt 0.05068125 0.673790625
vt 0.1415828125 0.8200359375
vt 0.1552921875 0.9765625
vt 0.1415828125 0.9765625
vt 0.0849796875 0.93777734375
vt 0.0712703125 0.78125
vt 0.0849796875 0.78125
vt 0.0798046875 0.9887117187500001
vt 0.0037062499999999943 0.86020390625
vt 0.01507734375 0.86020390625
vt 0.21820234375000006 0.65707890625
vt 0.27724375000000007 0.796875
vt 0.20683125000000005 0.65707890625
vt 0.27398515625 0.86020390625
vt 0.21494375000000002 0.7204078125
vt 0.28535625 0.86020390625
vt 0.47711015625 0.6570789062500001
vt 0.4180687500000001 0.5172828125
vt 0.48848125 0.6570789062500001
vt 0.4123828125000001 0.7855867187500001
vt 0.27724375000000007 0.796875
vt 0.2829296875 0.7855867187500001
vt 0.27398515625 0.86020390625
vt 0.21494375000000002 1
vt 0.2092578125 0.9887117187500001
vt 0.21172812500000002 0.5043046875
vt 0.26226640625 0.5043046875
vt 0.1975390625 0.6328125
vt 0.1722703125 0.425965625
vt 0.0933546875 0.425965625
vt 0.0680859375 0.37579687500000003
vt 0.4996046875 0.94983125
vt 0.5785203125 0.94983125
vt 0.6037890625 1
vt 0.1722703125 0.58264375
vt 0.1975390625 0.6328125
vt 0.0680859375 0.6328125
vt 0.4996046875 0.793153125
vt 0.4743359375 0.742984375
vt 0.6037890625 0.742984375
vt 0.1722703125 0.425965625
vt 0.1975390625 0.37579687500000003
vt 0.26226640625 0.5043046875
vt 0.0798046875 0.73169609375
vt 0.07411875 0.7204078125
vt 0.21494375000000002 0.7204078125
vt 0.21820234375000006 0.65707890625
vt 0.20683125000000005 0.65707890625
vt 0.27724375000000007 0.5172828125
vt 0.2092578125 0.9887117187500001
vt 0.21494375000000002 1
vt 0.07411875 1
vt 0.0798046875 0.73169609375
vt 0.01507734375 0.86020390625
vt 0.0037062499999999943 0.86020390625
vt 0.47711015625 0.6570789062500001
vt 0.48848125 0.6570789062500001
vt 0.4180687499999998 0.796875
vt 0.2829296875 0.52857109375
vt 0.27724375000000007 0.5172828125
vt 0.4180687500000001 0.5172828125
vt 0.5785203125 0.793153125
vt 0.6037890625 0.742984375
vt 0.66851640625 0.8714921875
vt 0.460146875 0.8714921875
vt 0.40960859375 0.8714921875
vt 0.4743359375 0.742984375
vt 0.053896875 0.5043046875
vt 0.0033585937499999996 0.5043046875
vt 0.0680859375 0.37579687500000003
vt 0.460146875 0.8714921875
vt 0.4996046875 0.94983125
vt 0.4743359375 1
vt 0.0933546875 0.58264375
vt 0.0680859375 0.6328125
vt 0.0033585937499999996 0.5043046875
vt 0.617978125 0.8714921875
vt 0.66851640625 0.8714921875
vt 0.6037890625 1
vt 0.29748515625 0.625
vt 0.31188984375 0.625
vt 0.31188984375 0.76888828125
vt 0.4123828125 0.8125
vt 0.4123828125 0.8269046875
vt 0.2829296875 0.8269046875
vt 0.17907734375 0.97201328125
vt 0.16467265625 0.97201328125
vt 0.16467265625 0.828125
vt 0.01501484375 0.8125
vt 0.0006101562499999996 0.8125
vt 0.0006101562499999996 0.66861171875
vt 0.3219921875 0.6796875
vt 0.3219921875 0.6652828125
vt 0.4514453125 0.6652828125
vt 0.32092265625 0.85611171875
vt 0.33532734375 0.85611171875
vt 0.33532734375 1
vt 0.20251484375 0.97201328125
vt 0.18811015625 0.97201328125
vt 0.18811015625 0.828125
vt 0.0485546875 0.6628421875
vt 0.0485546875 0.6484375
vt 0.1780078125 0.6484375
vt 0.02404765625 0.6171875
vt 0.03845234375 0.6171875
vt 0.03845234375 0.76107578125
vt 0.27404765625 0.59829921875
vt 0.28845234375 0.59829921875
vt 0.28845234375 0.7421875
vt 0.4514453125 0.6418453125
vt 0.4514453125 0.65625
vt 0.3219921875 0.65625
vt 0.31188984375 1
vt 0.29748515625 1
vt 0.29748515625 0.85611171875
vt 0.05068125 0.709021875
vt 0.05068125 0.6953125
vt 0.19150625 0.6953125
vt 0.0947078125 0.8125
vt 0.1084171875 0.8125
vt 0.1084171875 0.96902734375
vt 0.1318546875 0.9765625
vt 0.1181453125 0.9765625
vt 0.1181453125 0.8200359375
vt 0.19150625 0.673790625
vt 0.19150625 0.6875
vt 0.05068125 0.6875
vt 0.1415828125 0.8200359375
vt 0.1552921875 0.8200359375
vt 0.1552921875 0.9765625
vt 0.0849796875 0.93777734375
vt 0.0712703125 0.93777734375
vt 0.0712703125 0.78125
vt 0.0798046875 0.9887117187500001
vt 0.07411875 1
vt 0.0037062499999999943 0.86020390625
vt 0.21820234375000006 0.65707890625
vt 0.2829296875 0.7855867187500001
vt 0.27724375000000007 0.796875
vt 0.27398515625 0.86020390625
vt 0.2092578125 0.73169609375
vt 0.21494375000000002 0.7204078125
vt 0.47711015625 0.6570789062500001
vt 0.4123828125000001 0.52857109375
vt 0.4180687500000001 0.5172828125
vt 0.4123828125000001 0.7855867187500001
vt 0.4180687500000001 0.796875
vt 0.27724375 0.796875
vt 0.27398515625 0.86020390625
vt 0.28535625 0.86020390625
vt 0.21494375000000002 1
vn 0 0 -1
vn 0 0 -1
vn 0 0 1
vn 0 0 -1
vn 0 0 1
vn 0 0 -1
vn 0 0 1
vn 0 0 -1
vn 0 0 1
vn 0 0 1
vn 0 0 -1
vn 0 0 -1
vn 0 0 1
vn 0 0 1
vn 0 0 -1
vn 0 0 1
vn 0 0 -1
vn 0 0 1
vn -0.8931085907551116 -0.4498411332008432 0
vn 0 -1 0
vn 0.8931085907551116 -0.449841133200843 0
vn 0.8931085907551116 0.449841133200843 0
vn 0 1 0
vn -0.8931085907551116 0.4498411332008432 0
vn -0.8931085907551116 -0.44984113320084307 0
vn 0 -1 0
vn 0.8931085907551116 -0.449841133200843 0
vn 0.8931085907551116 0.449841133200843 0
vn 0 1 0
vn -0.8931085907551116 0.44984113320084307 0
vn 0 -1 0
vn 0.8931086994419978 -0.4498409174152832 0
vn -0.8931088586795202 0.4498406012668986 0
vn 0 1 0
vn 0.8931085378431155 0.4498412382516 0
vn -0.893109020278003 -0.4498402804308057 0
vn 0 0 1
vn 0 0 -1
vn 0 0 1
vn 0 0 -1
vn 0 0 -1
vn 0 0 1
vn 0 0 -1
vn 0 0 -1
vn 0 0 1
vn 0 0 -1
vn 0 0 1
vn 0 0 -1
vn 0 0 1
vn 0 0 -1
vn 0 0 1
vn 0 0 1
vn 0 0 -1
vn 0 0 -1
vn 0 0 1
vn 0 0 1
vn 0 0 -1
vn 0 0 1
vn 0 0 -1
vn 0 0 1
vn -0.8931085907551116 -0.4498411332008432 0
vn 0 -1 0
vn 0.8931085907551116 -0.449841133200843 0
vn 0.8931085907551116 0.449841133200843 0
vn 0 1 0
vn -0.8931085907551116 0.4498411332008432 0
vn -0.8931085907551116 -0.44984113320084307 0
vn 0 -1 0
vn 0.8931085907551116 -0.449841133200843 0
vn 0.8931085907551116 0.449841133200843 0
vn 0 1 0
vn -0.8931085907551116 0.44984113320084307 0
vn 0 -1 0
vn 0.8931086994419978 -0.4498409174152832 0
vn -0.8931088586795202 0.4498406012668986 0
vn 0 1 0
vn 0.8931085378431155 0.4498412382516 0
vn -0.893109020278003 -0.4498402804308057 0
vn 0 0 1
vn 0 0 -1
vn 0 0 1
vn 0 0 -1
vn 0 0 -1
vn 0 0 1
usemtl m_8cda85e8-09d0-f09a-d1fb-7e362a0aa6e8
f 1/1/1 2/2/1 3/3/1
f 4/4/2 5/5/2 6/6/2
f 7/7/3 8/8/3 9/9/3
f 3/10/4 10/11/4 11/12/4
f 12/13/5 13/14/5 14/15/5
f 4/16/6 15/17/6 1/18/6
f 16/19/7 17/20/7 18/21/7
f 19/22/8 20/23/8 21/24/8
f 22/25/9 23/26/9 24/27/9
f 16/28/10 25/29/10 26/30/10
f 27/31/11 28/32/11 29/33/11
f 21/34/12 30/35/12 31/36/12
f 14/37/13 32/38/13 33/39/13
f 34/40/14 35/41/14 12/42/14
f 36/43/15 5/44/15 37/45/15
f 34/46/16 9/47/16 38/48/16
f 11/49/17 39/50/17 36/51/17
f 33/52/18 8/53/18 40/54/18
f 16/55/19 38/56/19 41/57/19
f 18/58/20 35/59/20 16/60/20
f 42/61/21 13/62/21 18/63/21
f 22/64/22 32/65/22 42/66/22
f 24/67/23 8/68/23 22/69/23
f 41/70/24 9/71/24 24/72/24
f 27/73/25 6/74/25 31/75/25
f 31/76/26 5/77/26 21/78/26
f 21/79/27 39/80/27 19/81/27
f 19/82/28 10/83/28 43/84/28
f 43/85/29 2/86/29 29/87/29
f 29/88/30 15/89/30 27/90/30
f 26/91/31 20/92/31 17/93/31
f 17/94/32 44/95/32 45/96/32
f 23/97/33 46/98/33 25/99/33
f 47/100/34 28/101/34 23/102/34
f 45/103/35 48/104/35 47/105/35
f 25/106/36 30/107/36 26/108/36
f 24/109/37 25/110/37 41/111/37
f 19/112/38 48/113/38 44/114/38
f 42/115/39 17/116/39 45/117/39
f 27/118/40 30/119/40 46/120/40
f 29/121/41 48/122/41 43/123/41
f 42/124/42 47/125/42 22/126/42
f 1/127/43 15/128/43 2/129/43
f 4/130/44 37/131/44 5/132/44
f 7/133/45 40/134/45 8/135/45
f 3/136/46 2/137/46 10/138/46
f 12/139/47 35/140/47 13/141/47
f 4/142/48 6/143/48 15/144/48
f 16/145/49 26/146/49 17/147/49
f 19/148/50 44/149/50 20/150/50
f 22/151/51 47/152/51 23/153/51
f 16/154/52 41/155/52 25/156/52
f 27/157/53 46/158/53 28/159/53
f 21/160/54 20/161/54 30/162/54
f 14/163/55 13/164/55 32/165/55
f 34/166/56 38/167/56 35/168/56
f 36/169/57 39/170/57 5/171/57
f 34/172/58 7/173/58 9/174/58
f 11/175/59 10/176/59 39/177/59
f 33/178/60 32/179/60 8/180/60
f 16/181/61 35/182/61 38/183/61
f 18/184/62 13/185/62 35/186/62
f 42/187/63 32/188/63 13/189/63
f 22/190/64 8/191/64 32/192/64
f 24/193/65 9/194/65 8/195/65
f 41/196/66 38/197/66 9/198/66
f 27/199/67 15/200/67 6/201/67
f 31/202/68 6/203/68 5/204/68
f 21/205/69 5/206/69 39/207/69
f 19/208/70 39/209/70 10/210/70
f 43/211/71 10/212/71 2/213/71
f 29/214/72 2/215/72 15/216/72
f 26/217/73 30/218/73 20/219/73
f 17/220/74 20/221/74 44/222/74
f 23/223/75 28/224/75 46/225/75
f 47/226/76 48/227/76 28/228/76
f 45/229/77 44/230/77 48/231/77
f 25/232/78 46/233/78 30/234/78
f 24/235/79 23/236/79 25/237/79
f 19/238/80 43/239/80 48/240/80
f 42/241/81 18/242/81 17/243/81
f 27/244/82 31/245/82 30/246/82
f 29/247/83 28/248/83 48/249/83
f 42/250/84 45/251/84 47/252/84