# Blender 3.6.1
# www.blender.org
mtllib PalcoTeatro.mtl
o Cube.100
v -24.387669 0.169132 17.917955
v -23.984911 1.392467 17.515196
v -24.387669 0.169132 -17.975178
v -23.984911 1.392467 -17.572420
v -7.967696 0.476611 17.630384
v -8.354740 1.392467 17.515196
v -7.968344 0.476611 -17.687365
v -8.355410 1.392467 -17.572420
v -24.387669 0.169132 0.008237
v -23.984911 1.392467 0.008237
v -2.367645 0.476611 0.008237
v -2.780790 1.392467 0.008237
v -24.387669 0.169132 7.144356
v -4.385228 1.392467 7.027650
v -23.984911 1.392467 7.144356
v -3.998758 0.476611 7.144356
v -23.984911 1.392467 -7.127882
v -3.998758 0.476611 -7.127882
v -24.387669 0.169132 -7.127882
v -4.385329 1.392467 -7.011620
v -24.387669 1.392467 -7.127882
v -24.387669 1.392467 -17.975178
v -7.968344 1.084988 -17.687365
v -3.998758 1.084988 7.144356
v -7.967696 1.084988 17.630384
v -24.387669 1.392467 17.917955
v -24.387669 1.392467 7.144356
v -24.387669 1.392467 0.008237
v -3.998758 1.084988 -7.127882
v -2.367645 1.084988 0.008237
v -23.984911 1.618949 0.008237
v -2.780790 1.618949 0.008237
v -23.984911 1.618949 7.144356
v -4.385228 1.618949 7.027650
v -23.984911 1.618949 -7.127882
v -4.385329 1.618949 -7.011620
v -23.984911 1.618949 -17.572420
v -8.355410 1.618949 -17.572420
v -8.354740 1.618949 17.515196
v -23.984911 1.618949 17.515196
v -8.076540 1.392467 -17.975178
v -8.076540 0.169132 -17.975178
v -3.998758 0.169132 -7.127882
v -3.998758 1.392467 7.144356
v -8.076540 1.392467 17.917955
v -8.076540 0.169132 17.917955
v -3.998758 0.169132 7.144356
v -2.367645 0.169132 0.008237
v -3.998758 1.392467 -7.127882
v -2.367645 1.392467 0.008237
v -2.618817 1.084988 0.008237
v -2.618817 0.476611 0.008237
v -4.239206 1.084988 7.071745
v -4.239206 0.476611 7.071745
v -4.239288 1.084988 -7.055542
v -4.239288 0.476611 -7.055542
v -8.203452 1.084988 -17.598982
v -8.203452 0.476611 -17.598982
v -8.202605 1.084988 17.541473
v -8.202605 0.476611 17.541473
v -8.280962 0.169132 -17.975178
v -8.280962 1.392467 -17.975178
v -8.280962 0.169132 17.917955
v -8.280962 1.392467 17.917955
v -2.643615 0.169132 0.008237
v -4.254285 0.169132 7.144356
v -4.254285 0.169132 -7.127882
v -8.551289 1.392467 -17.572420
v -8.550628 1.392467 17.515196
v -3.046535 1.618949 0.008237
v -4.630864 1.618949 7.029113
v -4.630963 1.618949 -7.013077
v -8.551289 1.618949 -17.572420
v -8.550628 1.618949 17.515196
vn -1.0000 -0.0000 -0.0000
vn -0.0000 -0.0000 -1.0000
vn -0.0000 1.0000 -0.0000
vn -0.0000 -0.0000 1.0000
vn -0.0000 -1.0000 -0.0000
vn 0.9749 -0.0000 0.2228
vn 0.9360 -0.0000 -0.3519
vn 0.3519 -0.0000 0.9360
vn 0.9352 -0.0000 0.3540
vn 0.3540 -0.0000 -0.9352
vn 0.9749 -0.0000 -0.2228
vn 0.9747 -0.0000 -0.2236
vn 0.9747 -0.0000 0.2236
vt 0.375000 0.187500
vt 0.625000 0.187500
vt 0.625000 0.250000
vt 0.375000 0.250000
vt 0.375000 0.496867
vt 0.625000 0.496867
vt 0.625000 0.500000
vt 0.375000 0.500000
vt 0.437836 0.748332
vt 0.437836 0.687500
vt 0.375000 0.753133
vt 0.625000 0.753133
vt 0.625000 1.000000
vt 0.375000 1.000000
vt 0.371867 0.687500
vt 0.375000 0.687500
vt 0.375000 0.750000
vt 0.371867 0.750000
vt 0.630012 0.686478
vt 0.629691 0.625000
vt 0.630176 0.563170
vt 0.631125 0.502321
vt 0.371867 0.562500
vt 0.375000 0.562500
vt 0.375000 0.625000
vt 0.371867 0.625000
vt 0.437836 0.501658
vt 0.562164 0.501658
vt 0.375000 0.062500
vt 0.625000 0.062500
vt 0.625000 0.125000
vt 0.375000 0.125000
vt 0.375000 0.000000
vt 0.625000 0.000000
vt 0.631128 0.747663
vt 0.562164 0.748332
vt 0.562164 0.625000
vt 0.562164 0.687500
vt 0.371867 0.500000
vt 0.870062 0.562500
vt 0.869115 0.502321
vt 0.875000 0.500000
vt 0.875000 0.562500
vt 0.634107 0.502321
vt 0.628133 0.500000
vt 0.625000 0.750000
vt 0.625000 0.687500
vt 0.634110 0.747663
vt 0.869115 0.747663
vt 0.875000 0.750000
vt 0.628133 0.750000
vt 0.870062 0.687500
vt 0.870427 0.625000
vt 0.875000 0.625000
vt 0.875000 0.687500
vt 0.625000 0.625000
vt 0.625000 0.562500
vt 0.633021 0.686491
vt 0.633182 0.563161
vt 0.632708 0.625000
vt 0.437836 0.562500
vt 0.437836 0.625000
vt 0.562164 0.562500
vt 0.125000 0.500000
vt 0.125000 0.562500
vt 0.125000 0.625000
vt 0.125000 0.687500
vt 0.125000 0.750000
s 0
f 19/1/1 21/2/1 22/3/1 3/4/1
f 61/5/2 62/6/2 41/7/2 42/8/2
f 5/9/3 16/10/3 54/10/3 60/9/3
f 63/11/4 64/12/4 26/13/4 1/14/4
f 66/15/5 47/16/5 46/17/5 63/18/5
f 14/19/6 12/20/6 32/20/6 34/19/6
f 20/21/7 8/22/7 38/22/7 36/21/7
f 67/23/5 43/24/5 48/25/5 65/26/5
f 7/27/8 23/28/8 57/28/8 58/27/8
f 13/29/1 27/30/1 28/31/1 9/32/1
f 1/33/1 26/34/1 27/30/1 13/29/1
f 6/35/9 14/19/9 34/19/9 39/35/9
f 65/26/5 48/25/5 47/16/5 66/15/5
f 25/36/10 5/9/10 60/9/10 59/36/10
f 30/37/5 24/38/5 53/38/5 51/37/5
f 61/39/5 42/8/5 43/24/5 67/23/5
f 12/20/11 20/21/11 36/21/11 32/20/11
f 9/32/1 28/31/1 21/2/1 19/1/1
f 17/40/3 4/41/3 22/42/3 21/43/3
f 68/44/3 8/22/3 41/7/3 62/45/3
f 14/19/3 6/35/3 45/46/3 44/47/3
f 69/48/3 2/49/3 26/50/3 64/51/3
f 15/52/3 10/53/3 28/54/3 27/55/3
f 20/21/3 12/20/3 50/56/3 49/57/3
f 12/20/3 14/19/3 44/47/3 50/56/3
f 2/49/3 15/52/3 27/55/3 26/50/3
f 10/53/3 17/40/3 21/43/3 28/54/3
f 8/22/3 20/21/3 49/57/3 41/7/3
f 71/58/3 33/52/3 40/49/3 74/48/3
f 72/59/3 35/40/3 31/53/3 70/60/3
f 70/60/3 31/53/3 33/52/3 71/58/3
f 73/44/3 37/41/3 35/40/3 72/59/3
f 69/48/4 6/35/4 39/35/4 74/48/4
f 4/41/1 17/40/1 35/40/1 37/41/1
f 15/52/1 2/49/1 40/49/1 33/52/1
f 10/53/1 15/52/1 33/52/1 31/53/1
f 68/44/2 4/41/2 37/41/2 73/44/2
f 17/40/1 10/53/1 31/53/1 35/40/1
f 23/28/7 7/27/7 42/8/7 41/7/7
f 7/27/7 18/61/7 43/24/7 42/8/7
f 25/36/9 24/38/9 44/47/9 45/46/9
f 5/9/9 25/36/9 45/46/9 46/17/9
f 11/62/6 16/10/6 47/16/6 48/25/6
f 30/37/11 29/63/11 49/57/11 50/56/11
f 24/38/6 30/37/6 50/56/6 44/47/6
f 16/10/9 5/9/9 46/17/9 47/16/9
f 18/61/11 11/62/11 48/25/11 43/24/11
f 29/63/7 23/28/7 41/7/7 49/57/7
f 54/10/9 53/38/9 59/36/9 60/9/9
f 56/61/12 55/63/12 51/37/12 52/62/12
f 52/62/13 51/37/13 53/38/13 54/10/13
f 58/27/7 57/28/7 55/63/7 56/61/7
f 16/10/3 11/62/3 52/62/3 54/10/3
f 18/61/3 7/27/3 58/27/3 56/61/3
f 11/62/3 18/61/3 56/61/3 52/62/3
f 29/63/5 30/37/5 51/37/5 55/63/5
f 24/38/5 25/36/5 59/36/5 53/38/5
f 23/28/5 29/63/5 55/63/5 57/28/5
f 8/22/2 68/44/2 73/44/2 38/22/2
f 2/49/4 69/48/4 74/48/4 40/49/4
f 38/22/3 73/44/3 72/59/3 36/21/3
f 32/20/3 70/60/3 71/58/3 34/19/3
f 36/21/3 72/59/3 70/60/3 32/20/3
f 34/19/3 71/58/3 74/48/3 39/35/3
f 6/35/3 69/48/3 64/51/3 45/46/3
f 4/41/3 68/44/3 62/45/3 22/42/3
f 3/64/5 61/39/5 67/23/5 19/65/5
f 9/66/5 65/26/5 66/15/5 13/67/5
f 19/65/5 67/23/5 65/26/5 9/66/5
f 13/67/5 66/15/5 63/18/5 1/68/5
f 46/17/4 45/46/4 64/12/4 63/11/4
f 3/4/2 22/3/2 62/6/2 61/5/2
