# Made in Blockbench 4.8.3
mtllib SuporteLuzPalcoTeatro.mtl

o Cube.146
v 0.07054727777777714 0.020039777777775214 0.5682750000000016
v 0.031507277777777176 -0.8658962222222257 0.4225750000000019
v 0.07054727777777714 -0.8658962222222257 0.5682750000000016
v 0.031507277777777176 0.020039777777775214 0.4225750000000019
v 0.184002277777779 -0.8658962222222257 0.38171400000000233
v 0.184002277777779 0.020039777777775214 0.38171400000000233
v 0.22304127777777794 -0.8658962222222257 0.527414000000002
v 0.22304127777777794 0.020039777777775214 0.527414000000002
v -0.0977977222222215 0.18513277777777404 -0.05999899999999769
v -0.0705467222222218 0.18513277777777404 -0.5682749999999981
v -0.22304172222222363 0.18513277777777404 -0.5274139999999985
v 0.07054727777777714 0.18513277777777404 0.5682750000000016
v -0.18400172222222366 0.020039777777775214 -0.3817139999999988
v -0.22304172222222363 -0.8658962222222257 -0.5274139999999985
v -0.18400172222222366 -0.8658962222222257 -0.3817139999999988
v -0.22304172222222363 0.020039777777775214 -0.5274139999999985
v -0.0705467222222218 -0.8658962222222257 -0.5682749999999981
v -0.0705467222222218 0.020039777777775214 -0.5682749999999981
v -0.03150772222222287 -0.8658962222222257 -0.42257499999999837
v -0.03150772222222287 0.020039777777775214 -0.42257499999999837
v 0.1408992777777769 0.020039777777775214 0.2208570000000023
v -0.011594722222220355 0.020039777777775214 0.26171700000000087
v -0.14089972222222258 0.020039777777775214 -0.22085699999999875
v 0.011594277777778217 0.020039777777775214 -0.2617169999999991
v -0.0977977222222215 0.020039777777775214 -0.05999899999999769
v 0.054697277777776776 0.020039777777775214 -0.10085999999999906
v -0.05469672222222144 0.020039777777775214 0.10086000000000084
v 0.09779727777777936 0.020039777777775214 0.059999000000001246
v 0.09779727777777936 0.18513277777777404 0.059999000000001246
v 0.22304127777777794 0.18513277777777404 0.527414000000002
v -0.05469672222222144 0.18513277777777404 0.10086000000000084
v -0.0977977222222215 1.281367777777774 -0.05999899999999769
v 0.09779727777777936 1.281367777777774 0.059999000000001246
v 0.054697277777776776 1.281367777777774 -0.10085999999999906
v -0.05469672222222144 1.281367777777774 0.10086000000000084
v 0.054697277777776776 0.18513277777777404 -0.10085999999999906
vt 0.283584375 0.6846671875000001
vt 0.245875 0.463184375
vt 0.283584375 0.463184375
vt 0.484375 1
vt 0.44490625 0.7785171875
vt 0.484375 0.7785171875
vt 0.240834375 0.3877921875
vt 0.203125 0.16630937499999998
vt 0.240834375 0.16630937499999998
vt 0.421875 0.9587265625
vt 0.38240625 0.73724375
vt 0.421875 0.73724375
vt 0.43605625 0.515625
vt 0.40769375 0.562265625
vt 0.3979328125 0.5258406250000001
vt 0.22315546875 0.8729312499999999
vt 0.22996953125 1
vt 0.19184453125 0.9897843749999999
vt 0.421875 0.9587265625
vt 0.38240625 1
vt 0.38240625 0.9587265625
vt 0.037709375 0.6846671875
vt 0 0.463184375
vt 0.037709375 0.463184375
vt 0.171875 0.6149765625
vt 0.13240625 0.39349375
vt 0.171875 0.39349375
vt 0.4867078125 0.3877921875000001
vt 0.4489984375 0.16630937499999998
vt 0.4867078125 0.16630937499999998
vt 0.53125 0.75
vt 0.49178125 0.5285171875
vt 0.53125 0.5285171875
vt 0.5454328125 0.953125
vt 0.51706875 0.999765625
vt 0.5073078125 0.9633406250000001
vt 0.171875 0.6149765625
vt 0.13240625 0.65625
vt 0.13240625 0.6149765625
vt 0.08209999999999999 0.9421078125
vt 0.0547515625 0.9925375
vt 0.0439765625 0.9523234375
vt 0.0389984375 0.78125
vt 0.011650000000000008 0.8316796875
vt 0.0008750000000000008 0.791465625
vt 0.0497734375 0.8214640625
vt 0.022425 0.87189375
vt 0.011650000000000008 0.8316796875
vt 0.06055 0.861678125
vt 0.033201562500000004 0.912109375
vt 0.022425 0.87189375
vt 0.071325 0.9018937499999999
vt 0.04397656250000001 0.9523234375
vt 0.033201562500000004 0.912109375
vt 0.0793421875 0.6846671875
vt 0.120975 0.6846671875
vt 0.120975 0.725940625
vt 0.3241 0.429065625
vt 0.3241 0.3877921875
vt 0.3657328125 0.3877921875
vt 0.46440468749999997 0.601896875
vt 0.3949703125 0.7085343749999999
vt 0.42628125 0.5916812499999999
vt 0.162609375 0.725940625
vt 0.120975 1
vt 0.120975 0.725940625
vt 0.1943 0.8335343749999999
vt 0.2432 0.803534375
vt 0.232425 0.84375
vt 0.109375 0.382190625
vt 0.06990625 0.65625
vt 0.06990625 0.382190625
vt 0.3657328125 0.429065625
vt 0.3241 0.703125
vt 0.3241 0.429065625
vt 0.359375 0.725940625
vt 0.31990625 1
vt 0.31990625 0.725940625
vt 0.283584375 0.6846671875000001
vt 0.245875 0.6846671875000001
vt 0.245875 0.463184375
vt 0.484375 1
vt 0.44490625 1
vt 0.44490625 0.7785171875
vt 0.240834375 0.3877921875
vt 0.203125 0.3877921875
vt 0.203125 0.16630937499999998
vt 0.421875 0.9587265625
vt 0.38240625 0.9587265625
vt 0.38240625 0.73724375
vt 0.43605625 0.515625
vt 0.4458171875 0.5520499999999999
vt 0.40769375 0.562265625
vt 0.22315546875 0.8729312499999999
vt 0.26128046875 0.883146875
vt 0.22996953125 1
vt 0.421875 0.9587265625
vt 0.421875 1
vt 0.38240625 1
vt 0.037709375 0.6846671875
vt 0 0.6846671875
vt 0 0.463184375
vt 0.171875 0.6149765625
vt 0.13240625 0.6149765625
vt 0.13240625 0.39349375
vt 0.4867078125 0.3877921875000001
vt 0.4489984375 0.3877921875000001
vt 0.4489984375 0.16630937499999998
vt 0.53125 0.75
vt 0.49178125 0.75
vt 0.49178125 0.5285171875
vt 0.5454328125 0.953125
vt 0.5551921875 0.98955
vt 0.51706875 0.999765625
vt 0.171875 0.6149765625
vt 0.171875 0.65625
vt 0.13240625 0.65625
vt 0.08209999999999999 0.9421078125
vt 0.092875 0.982321875
vt 0.0547515625 0.9925375
vt 0.0389984375 0.78125
vt 0.0497734375 0.8214640625
vt 0.011650000000000008 0.8316796875
vt 0.0497734375 0.8214640625
vt 0.06055 0.861678125
vt 0.022425 0.87189375
vt 0.06055 0.861678125
vt 0.071325 0.9018937499999999
vt 0.033201562500000004 0.912109375
vt 0.071325 0.9018937499999999
vt 0.08209999999999999 0.9421078125
vt 0.043976562500000003 0.9523234375
vt 0.245875 0.6846671875000001
vt 0.283584375 0.6846671875000001
vt 0.283584375 0.725940625
vt 0.245875 0.6846671875000001
vt 0.283584375 0.725940625
vt 0.2042421875 0.6846671875000001
vt 0.283584375 0.725940625
vt 0.162609375 0.725940625
vt 0.2042421875 0.6846671875
vt 0.120975 0.725940625
vt 0 0.725940625
vt 0.0793421875 0.6846671875
vt 0 0.725940625
vt 0 0.6846671875
vt 0.037709375 0.6846671875
vt 0.2042421875 0.6846671875
vt 0.162609375 0.725940625
vt 0.162609375 0.6846671875
vt 0.162609375 0.725940625
vt 0.120975 0.725940625
vt 0.162609375 0.6846671875
vt 0 0.725940625
vt 0.037709375 0.6846671875
vt 0.0793421875 0.6846671875
vt 0.120975 0.6846671875
vt 0.162609375 0.6846671875
vt 0.120975 0.725940625
vt 0.4867078125 0.3877921875000001
vt 0.4867078125 0.429065625
vt 0.4489984375 0.3877921875000001
vt 0.4867078125 0.429065625
vt 0.3657328125 0.429065625
vt 0.407365625 0.3877921875
vt 0.4489984375 0.3877921875000001
vt 0.4867078125 0.429065625
vt 0.407365625 0.3877921875000001
vt 0.3241 0.429065625
vt 0.203125 0.429065625
vt 0.2824671875 0.3877921875
vt 0.203125 0.429065625
vt 0.203125 0.3877921875
vt 0.240834375 0.3877921875
vt 0.3657328125 0.429065625
vt 0.3241 0.429065625
vt 0.3657328125 0.3877921875
vt 0.407365625 0.3877921875
vt 0.3657328125 0.429065625
vt 0.3657328125 0.3877921875
vt 0.203125 0.429065625
vt 0.240834375 0.3877921875
vt 0.2824671875 0.3877921875
vt 0.3241 0.429065625
vt 0.2824671875 0.3877921875
vt 0.3241 0.3877921875
vt 0.46440468749999997 0.601896875
vt 0.43309375 0.71875
vt 0.3949703125 0.7085343749999999
vt 0.162609375 0.725940625
vt 0.162609375 1
vt 0.120975 1
vt 0.1943 0.8335343749999999
vt 0.2050765625 0.7933187500000001
vt 0.2432 0.803534375
vt 0.109375 0.382190625
vt 0.109375 0.65625
vt 0.06990625 0.65625
vt 0.3657328125 0.429065625
vt 0.3657328125 0.703125
vt 0.3241 0.703125
vt 0.359375 0.725940625
vt 0.359375 1
vt 0.31990625 1
vn -0.965926153352773 0 0.2588178244810727
vn -0.2588195645786236 0 -0.9659256870957165
vn 0.965927810717291 0 -0.25881163900199977
vn 0.25882114812756835 0 0.9659252627827515
vn 0 -1 0
vn 0 1 0
vn 0.25882114812756835 0 0.9659252627827515
vn -0.965926153352773 0 0.2588178244810727
vn -0.2588195645786236 0 -0.9659256870957165
vn 0.965927810717291 0 -0.25881163900199977
vn 0.25882114812756835 0 0.9659252627827515
vn 0 -1 0
vn -0.2588195645786236 0 -0.9659256870957165
vn 0 -1 0
vn 0 -1 0
vn 0 -1 0
vn 0 -1 0
vn 0 -1 0
vn -0.9659254828058725 0 0.25882032699585655
vn 0.9659288873951549 0 -0.2588076206288339
vn 0 1 0
vn -0.9659273862384538 0 0.2588132232219772
vn 0 1 0
vn 0.25882114812756835 0 0.9659252627827515
vn 0.9659288873951548 0 -0.2588076206288339
vn -0.2588195645786397 0 -0.965925687095712
vn -0.965926153352773 0 0.2588178244810727
vn -0.2588195645786236 0 -0.9659256870957165
vn 0.965927810717291 0 -0.25881163900199977
vn 0.25882114812756835 0 0.9659252627827515
vn 0 -1 0
vn 0 1 0
vn 0.25882114812756835 0 0.9659252627827515
vn -0.965926153352773 0 0.2588178244810727
vn -0.2588195645786236 0 -0.9659256870957165
vn 0.965927810717291 0 -0.25881163900199977
vn 0.25882114812756835 0 0.9659252627827515
vn 0 -1 0
vn -0.2588195645786236 0 -0.9659256870957165
vn 0 -1 0
vn 0 -1 0
vn 0 -1 0
vn 0 -1 0
vn 0 -1 0
vn -0.965926153352773 0 0.2588178244810727
vn -0.9659254828031718 -0.0000023671176360331586 0.25882032699511154
vn -0.9659255533918154 -0.0000018428291195461304 0.25882006356022585
vn -0.9659255533934172 2.751062904895763e-7 0.25882006356066234
vn -0.965926153352773 0 0.2588178244810727
vn -0.9659250805508262 0 0.2588218282194915
vn -0.9659273862384539 0 0.2588132232219772
vn -0.9659250805438994 0.0000037871192335486884 0.2588218282176355
vn -0.9659273862384539 0 0.2588132232219772
vn 0.9659278107172911 0 -0.25881163900199977
vn 0.9659255533648677 -0.000007693625644862946 -0.2588200635530062
vn 0.9659254827732554 -0.00000821791377688574 -0.25882032698711965
vn 0.965925553393419 2.7510627685309773e-7 -0.2588200635606555
vn 0.9659278107172911 0 -0.25881163900199977
vn 0.9659288873951549 0 -0.2588076206288339
vn 0.9659235793048866 0 -0.2588274308160486
vn 0.9659235791971202 0.000014937383284563248 -0.258827430787193
vn 0.9659254828058779 0 -0.2588203269958366
vn 0 1 0
vn -0.9659273862384538 0 0.2588132232219772
vn 0 1 0
vn 0.25882114812756835 0 0.9659252627827515
vn 0.9659288873951548 0 -0.2588076206288339
vn -0.2588195645786397 0 -0.965925687095712
usemtl m_1cc27467-5619-6f3a-e202-6cd79856c6be
f 1/1/1 2/2/1 3/3/1
f 4/4/2 5/5/2 2/6/2
f 6/7/3 7/8/3 5/9/3
f 8/10/4 3/11/4 7/12/4
f 5/13/5 3/14/5 2/15/5
f 9/16/6 10/17/6 11/18/6
f 8/19/7 12/20/7 1/21/7
f 13/22/8 14/23/8 15/24/8
f 16/25/9 17/26/9 14/27/9
f 18/28/10 19/29/10 17/30/10
f 20/31/11 15/32/11 19/33/11
f 17/34/12 15/35/12 14/36/12
f 16/37/13 10/38/13 18/39/13
f 21/40/14 4/41/14 22/42/14
f 20/43/15 23/44/15 13/45/15
f 24/46/16 25/47/16 23/48/16
f 26/49/17 27/50/17 25/51/17
f 28/52/18 22/53/18 27/54/18
f 23/55/19 25/56/19 9/57/19
f 29/58/20 28/59/20 26/60/20
f 30/61/21 31/62/21 12/63/21
f 31/64/22 32/65/22 9/66/22
f 32/67/23 33/68/23 34/69/23
f 29/70/24 35/71/24 31/72/24
f 36/73/25 33/74/25 29/75/25
f 9/76/26 34/77/26 36/78/26
f 1/79/27 4/80/27 2/81/27
f 4/82/28 6/83/28 5/84/28
f 6/85/29 8/86/29 7/87/29
f 8/88/30 1/89/30 3/90/30
f 5/91/31 7/92/31 3/93/31
f 9/94/32 36/95/32 10/96/32
f 8/97/33 30/98/33 12/99/33
f 13/100/34 16/101/34 14/102/34
f 16/103/35 18/104/35 17/105/35
f 18/106/36 20/107/36 19/108/36
f 20/109/37 13/110/37 15/111/37
f 17/112/38 19/113/38 15/114/38
f 16/115/39 11/116/39 10/117/39
f 21/118/40 6/119/40 4/120/40
f 20/121/41 24/122/41 23/123/41
f 24/124/42 26/125/42 25/126/42
f 26/127/43 28/128/43 27/129/43
f 28/130/44 21/131/44 22/132/44
f 4/133/45 1/134/45 12/135/45
f 4/136/46 12/137/46 22/138/46
f 12/139/47 31/140/47 22/141/47
f 9/142/48 11/143/48 23/144/48
f 11/145/49 16/146/49 13/147/49
f 22/148/50 31/149/50 27/150/50
f 31/151/51 9/152/51 27/153/51
f 11/154/52 13/155/52 23/156/52
f 25/157/53 27/158/53 9/159/53
f 18/160/54 10/161/54 20/162/54
f 10/163/55 36/164/55 24/165/55
f 20/166/56 10/167/56 24/168/56
f 29/169/57 30/170/57 21/171/57
f 30/172/58 8/173/58 6/174/58
f 36/175/59 29/176/59 26/177/59
f 24/178/60 36/179/60 26/180/60
f 30/181/61 6/182/61 21/183/61
f 29/184/62 21/185/62 28/186/62
f 30/187/63 29/188/63 31/189/63
f 31/190/64 35/191/64 32/192/64
f 32/193/65 35/194/65 33/195/65
f 29/196/66 33/197/66 35/198/66
f 36/199/67 34/200/67 33/201/67
f 9/202/68 32/203/68 34/204/68