# Made in Blockbench 4.8.3
mtllib VigaTeatro.mtl

o PilastraEsgoro.048
v 0.5248261874999987 -0.07586433333333353 0.00031520833332976395
v 0.3419451874999986 -0.07010033333333432 -0.3382277916666716
v 0.3419451874999986 -2.7040243333333347 0.3381962083333292
v 0.3419451874999986 -2.7040243333333347 -0.3382277916666716
v 0.3419451874999986 -0.07010033333333432 0.33819820833333125
v -0.34196081250000177 -2.7040243333333347 0.33819820833333125
v -0.34196081250000177 -0.07010033333333432 0.33819820833333125
v -0.34196081250000177 -2.7040243333333347 -0.3382277916666716
v -0.34196081250000177 -0.07010033333333432 -0.3382277916666716
v -0.48333681250000105 -0.07010033333333432 -0.47960479166667014
v 0.00013418749999871693 -0.07586433333333353 -0.5208017916666705
v -0.34196081250000177 0.06413766666666554 -0.3382277916666716
v 0.3419451874999986 0.19285766666666682 -0.3382277916666716
v 0.3419451874999986 0.06413766666666554 -0.3382277916666716
v 0.4833201874999986 -0.07010033333333432 -0.47960479166667014
v -0.34196081250000177 0.06413666666666629 0.33819820833333125
v -0.48354581250000095 0.06413666666666629 0.47978420833333146
v 0.000041187499999040256 0.06990166666666653 0.5209812083333318
v 0.4835311874999988 0.06413766666666554 -0.47981379166666827
v 0.00013418749999871693 0.06990166666666653 -0.5210277916666683
v -0.4833358125000018 -0.07010033333333432 0.47957420833332876
v -0.5250778125000011 0.06990166666666653 0.000031208333329146853
v -0.4835468125000002 0.06413766666666554 -0.4798127916666708
v 0.4833201874999986 -0.07010033333333432 0.47957420833332876
v 0.5250551874999996 0.06990166666666653 0.00031520833332976395
v 0.4835321874999998 0.06413666666666629 0.4797822083333294
v 0.000041187499999040256 -0.07586433333333353 0.5207562083333315
v 0.3419451874999986 0.06413666666666629 0.33819820833333125
v -0.5248488125000002 -0.07586433333333353 0.000031208333329146853
v -0.4761748125000018 0.3501836666666662 -0.470973791666669
v 0.47616018749999967 0.3501836666666662 -0.470973791666669
v -0.34196081250000177 0.19285766666666682 0.33819820833333125
v -0.34196081250000177 0.19285766666666682 -0.3382277916666716
v 0.3419451874999986 0.19285766666666682 0.33819820833333125
v -0.4761748125000018 0.3501836666666662 0.47094320833333114
v -0.4761748125000018 0.6803546666666662 -0.470973791666669
v 0.47616018749999967 0.3501836666666662 0.47094320833333114
v 0.47616018749999967 0.6803546666666662 0.47094320833333114
v 0.47616018749999967 0.6803546666666662 -0.470973791666669
v -0.4761748125000018 0.6803546666666662 0.47094320833333114
v 0.42001218749999936 0.6803546666666662 0.41479720833332934
v -0.4200268125000015 0.8181626666666659 0.41479720833332934
v -0.4200268125000015 0.6803546666666662 0.41479720833332934
v 0.42001218749999936 0.6803546666666662 -0.4148267916666697
v -0.42002781250000076 0.6803546666666662 -0.4148267916666697
v -0.42002781250000076 0.8181626666666659 -0.4148267916666697
v 0.42001218749999936 0.8181626666666659 0.41479720833332934
v 0.42001218749999936 0.8181626666666659 -0.4148267916666697
vt 0.1789953125 0.7109375
vt 0.09444296875 0.38169687500000005
vt 0.1789953125 0.38169687500000005
vt 0.327900390625 0.75
vt 0.24241210937500002 0.42075937500000005
vt 0.327900390625 0.42075937500000005
vt 0.4211828125 1
vt 0.3366296875 0.670759375
vt 0.4211828125 0.670759375
vt 0.085712890625 0.8203125
vt 0.00022460937500000389 0.49107187500000005
vt 0.085712890625 0.49107187500000005
vt 0.429912109375 0.998615625
vt 0.515400390625 0.9140625
vt 0.515400390625 0.99861484375
vt 0.12739185261225164 0.8041800014371193
vt 0.10240044636225165 0.8041800014371193
vt 0.14149185261225164 0.7578003139371193
vt 0.327900390625 0.86672265625
vt 0.24241210937500002 0.8828125
vt 0.24241210937500002 0.86672265625
vt 0.18785272163047673 0.7437421858855946
vt 0.1878617046725973 0.71875
vt 0.233941523065683 0.7575181276580923
vt 0.08562782259347164 0.8547561199692457
vt 0.08563693403343042 0.829727215377695
vt 0.13201332155649276 0.8688456631759242
vt 0.08628964656970091 0.9749710954474885
vt 0.08629886462567156 1
vt 0.03990947342415054 0.9609334886460631
vt 0.3593990191993276 0.61790859375
vt 0.4200421960712416 0.6354086538086279
vt 0.359375 0.6346882815368324
vt 0.47337600016009274 0.5085328124999999
vt 0.5335572501600927 0.5260328125
vt 0.4733517814100927 0.5253125000000001
vt 0.3359659771348022 0.5007048424400793
vt 0.3960951277602836 0.5182201027107178
vt 0.3359375 0.5174845232534411
vt 0.3593994183659531 0.5554078124999999
vt 0.42001874142666556 0.5729085336460186
vt 0.359375 0.5721874997106995
vt 0.2476073727512802 0.8035636921914098
vt 0.27259955363774835 0.803581873863834
vt 0.23349005484483965 0.8499151529396712
vt 0.025828792912454518 0.9145332645291295
vt 0.0007998866624545076 0.9145332645291295
vt 0.03954207416245451 0.8684434207791296
vt 0.14604525219503006 0.9151505424110243
vt 0.17107493377390945 0.9151333259200304
vt 0.13239802810476187 0.9612154092034999
vt 0.18719169102012342 0.8639563368354862
vt 0.18720109977287935 0.8889485225644401
vt 0.14112558976422843 0.8502486782658932
vt 0.48069375 0.65625
vt 0.58295859375 0.68198125
vt 0.46391640624999997 0.68198125
vt 0.085712890625 0.46047265625
vt 0.00022460937500000389 0.4765625
vt 0.00022460937500000389 0.46047265625
vt 0.6086828125 0.92141015625
vt 0.5241296875 0.9375
vt 0.5241296875 0.92141015625
vt 0.5383703125 0.45266015625
vt 0.4538171875 0.46875
vt 0.4538171875 0.45266015625
vt 0.551057421875 0.7556031249999999
vt 0.433317578125 0.796875
vt 0.433317578125 0.7556031249999999
vt 0.57399375 0.6171875
vt 0.47172890624999997 0.64291796875
vt 0.48850546875 0.6171875
vt 0.573526953125 0.578125
vt 0.472380078125 0.6039749999999999
vt 0.488973828125 0.578125
vt 0.573526171875 0.5390625
vt 0.472380078125 0.56491171875
vt 0.488973046875 0.5390625
vt 0.551057421875 0.7009156249999999
vt 0.433317578125 0.7421875
vt 0.433317578125 0.7009156249999999
vt 0.55170859375 0.8649781249999999
vt 0.43266640625 0.90625
vt 0.43266640625 0.8649781249999999
vt 0.55170859375 0.8102906249999999
vt 0.43266640625 0.8515625
vt 0.43266640625 0.8102906249999999
vt 0.57593984375 0.48277421875000004
vt 0.47093515625 0.5
vt 0.47093515625 0.48277421875000004
vt 0.45093984375 0.545528125
vt 0.45795859375000003 0.65625
vt 0.45093984375 0.6492312499999999
vt 0.34593515625 0.545528125
vt 0.45795859375000003 0.53851015625
vt 0.45093984375 0.545528125
vt 0.34593515625 0.64923125
vt 0.33891640625 0.53851015625
vt 0.34593515625 0.545528125
vt 0.45093984375 0.6492312499999999
vt 0.33891640625 0.65625
vt 0.34593515625 0.6492312499999999
vt 0.20531015625 1
vt 0.31031484375 0.896296875
vt 0.31031484375 1
vt 0.629976171875 0.95152421875
vt 0.526273828125 0.96875
vt 0.526273828125 0.95152421875
vt 0.6299765625 0.98277421875
vt 0.5262734375 1
vt 0.5262734375 0.98277421875
vt 0.44312734375 0.47496171875000004
vt 0.33812265625 0.4921875
vt 0.33812265625 0.47496171875000004
vt 0.5335572501600726 0.5260328123827556
vt 0.5937215261486931 0.5085147535402403
vt 0.59375 0.5252944332497536
vt 0.3612195251508358 0.60415859375
vt 0.4218509232266881 0.5866583255151876
vt 0.421875 0.6034380132195072
vt 0.3960958479580515 0.5182203125
vt 0.456312463575427 0.5007202516539732
vt 0.45633570033059045 0.5174999394331683
vt 0.1346328125 0.99478359375
vt 0.19528828125 0.9772828125
vt 0.1953125 0.9940625
vt 0.1789953125 0.7109375
vt 0.0944421875 0.7109375
vt 0.09444296875 0.38169687500000005
vt 0.327900390625 0.75
vt 0.24241210937500002 0.75
vt 0.24241210937500002 0.42075937500000005
vt 0.4211828125 1
vt 0.3366296875 1
vt 0.3366296875 0.670759375
vt 0.085712890625 0.8203125
vt 0.00022460937500001082 0.8203125
vt 0.00022460937500001082 0.49107187500000005
vt 0.429912109375 0.998615625
vt 0.429912109375 0.9140625
vt 0.515400390625 0.9140625
vt 0.1878617046725973 0.71875
vt 0.18785272163047673 0.7437421858855946
vt 0.14149219712201927 0.7577997419945273
vt 0.18785272163047673 0.7437421858855946
vt 0.12739185261225164 0.8041800014371193
vt 0.14149200916320556 0.7577997989878766
vt 0.327900390625 0.86672265625
vt 0.327900390625 0.8828125
vt 0.24241210937500002 0.8828125
vt 0.27259955363774835 0.803581873863834
vt 0.2476073727512802 0.8035636921914098
vt 0.23394086668758818 0.7575185814523423
vt 0.2476073727512802 0.8035636921914098
vt 0.18785272163047673 0.7437421858855946
vt 0.23394065498615627 0.7575178681891402
vt 0.1710751133375455 0.915255002962641
vt 0.14604543218281676 0.9152371804972207
vt 0.13201361846538592 0.8688451460905771
vt 0.14604543218281676 0.9152371804972207
vt 0.08562782259347165 0.8547561199692457
vt 0.13201382072357995 0.8688458147973662
vt 0.0007998866624545076 0.9145332645291295
vt 0.02582879291245451 0.9145332645291295
vt 0.03990926166245451 0.9609340457791296
vt 0.02582879291245451 0.9145332645291295
vt 0.08628964656970091 0.9749710954474885
vt 0.03990905408463131 0.9609333617271042
vt 0.3593990191993276 0.61790859375
vt 0.4200396441993276 0.6171875
vt 0.4200419879493276 0.63540859375
vt 0.47337600016009274 0.5085328124999999
vt 0.5335541251600927 0.5078125
vt 0.5335572501600927 0.5260328125
vt 0.3359659771348022 0.5007048424400793
vt 0.3960981917080515 0.5
vt 0.3960958479580515 0.5182203125
vt 0.3593994183659531 0.5554078124999999
vt 0.42001660586595313 0.5546875
vt 0.4200189496159531 0.57290859375
vt 0.18720109977287935 0.8889485225644401
vt 0.18719169102012342 0.8639563368354862
vt 0.23355747593575632 0.8498459118625439
vt 0.18719169102012342 0.8639563368354862
vt 0.24760816739485114 0.8034741443029642
vt 0.23355752696503457 0.8498458963328854
vt 0.08563693403343042 0.829727215377695
vt 0.08562782259347165 0.8547561199692457
vt 0.0395415866379269 0.8684440312958511
vt 0.08562782259347165 0.8547561199692457
vt 0.025828792912454518 0.9145332645291295
vt 0.03954192216335542 0.8684439316426202
vt 0.08629886462567155 1
vt 0.08628964656970091 0.9749710954474885
vt 0.1323978649327733 0.9612158317739365
vt 0.08628964656970091 0.9749710954474885
vt 0.14604525219503006 0.9151505424110243
vt 0.1323979065958972 0.9612158193447585
vt 0.10240044636225165 0.8041800014371193
vt 0.12739185261225164 0.8041800014371193
vt 0.14112544636225166 0.8502487514371193
vt 0.12739185261225167 0.8041800014371193
vt 0.18719169102012342 0.8639563368354862
vt 0.14112540846669266 0.8502486243180953
vt 0.48069375 0.65625
vt 0.56618203125 0.65625
vt 0.58295859375 0.68198125
vt 0.085712890625 0.46047265625
vt 0.085712890625 0.4765625
vt 0.00022460937500001082 0.4765625
vt 0.6086828125 0.92141015625
vt 0.6086828125 0.9375
vt 0.5241296875 0.9375
vt 0.5383703125 0.45266015625
vt 0.5383703125 0.46875
vt 0.4538171875 0.46875
vt 0.551057421875 0.7556031249999999
vt 0.551057421875 0.796875
vt 0.433317578125 0.796875
vt 0.57399375 0.6171875
vt 0.59077109375 0.64291796875
vt 0.47172890624999997 0.64291796875
vt 0.573526953125 0.578125
vt 0.590119921875 0.6039749999999999
vt 0.472380078125 0.6039749999999999
vt 0.573526171875 0.5390625
vt 0.590119921875 0.56491171875
vt 0.472380078125 0.56491171875
vt 0.551057421875 0.7009156249999999
vt 0.551057421875 0.7421875
vt 0.433317578125 0.7421875
vt 0.55170859375 0.8649781249999999
vt 0.55170859375 0.90625
vt 0.43266640624999997 0.90625
vt 0.55170859375 0.8102906249999999
vt 0.55170859375 0.8515625
vt 0.43266640624999997 0.8515625
vt 0.57593984375 0.48277421875000004
vt 0.57593984375 0.5
vt 0.47093515625 0.5
vt 0.45093984375 0.545528125
vt 0.45795859375000003 0.53851015625
vt 0.45795859375000003 0.65625
vt 0.34593515625 0.545528125
vt 0.33891640625 0.53851015625
vt 0.45795859375000003 0.53851015625
vt 0.34593515625 0.6492312499999999
vt 0.33891640625 0.65625
vt 0.33891640625 0.53851015625
vt 0.45093984375 0.6492312499999999
vt 0.45795859375000003 0.65625
vt 0.33891640624999997 0.65625
vt 0.20531015625 1
vt 0.20531015625 0.896296875
vt 0.31031484375 0.896296875
vt 0.629976171875 0.95152421875
vt 0.629976171875 0.96875
vt 0.526273828125 0.96875
vt 0.6299765625 0.98277421875
vt 0.6299765625 1
vt 0.5262734375 1
vt 0.44312734375 0.47496171875000004
vt 0.44312734375 0.4921875
vt 0.33812265625 0.4921875
vt 0.5335572501600726 0.5260328123827556
vt 0.5335541251600927 0.5078125
vt 0.5937215261486931 0.5085147535402403
vt 0.3612195251508358 0.60415859375
vt 0.3612218689008358 0.5859375
vt 0.4218499939008358 0.58665859375
vt 0.3960958479580515 0.5182203125
vt 0.3960981917080515 0.5
vt 0.4563122542080515 0.5007203124999999
vt 0.1346328125 0.99478359375
vt 0.13463515625 0.9765625
vt 0.19528828125 0.9772828125
vn 1 0 0
vn 0.000002924378499452824 -7.593233525518519e-7 0.9999999999954358
vn -1 0 0
vn 0 0 -1
vn 0 -1 0
vn -0.010984675379094505 -0.9998793304797311 0.01098459768134048
vn 0 0 -1
vn -0.011053094429158314 -0.9998778233682628 -0.011052938065755202
vn -0.010984152722735539 0.9998793419619232 -0.010984075143365163
vn 0.010985862487852233 0.9998793035415806 0.01098586248785251
vn -0.08486286213693377 -0.001691510940377221 0.9963912050096922
vn -0.9962756910015497 -0.0016921381235762368 -0.08620837655330053
vn 0.9962712860315694 -0.001707065706056476 0.08625897376898352
vn 0.08493084902579998 -0.0016848058125851885 -0.9963854235752001
vn 0.010989009884173801 -0.9998792352238614 -0.010988932155210919
vn 0.011053959598868134 0.9998778016479497 -0.011054037671824949
vn -0.011063901124236913 0.9998775800048347 0.011064135555411388
vn 0.011060869265308297 -0.999877650551771 0.011060791028059843
vn 0 -0.6448771467587897 -0.7642862458452608
vn 0 0 1
vn -1 0 0
vn 1 0 0
vn -1 0 0
vn 0 -0.6448743090379407 0.7642886402026651
vn -0.7607762260439183 -0.6490142786459889 0
vn 0.7607738384130236 -0.6490170774227093 0
vn 1 0 0
vn 0 0 -1
vn 0 0 1
vn 0 0 1
vn 0 1 0
vn 0 1 0
vn 0 1 0
vn 0 1 0
vn 0 1 0
vn -0.9999999999992737 0 0.0000012053653212188587
vn 1 0 0
vn 0 0 -1
vn -0.9962741074778412 -0.001693461257414519 0.08622664877055616
vn 0.08488384503622366 -0.0016779604638750545 0.9963894405806137
vn 0.9962813262377878 -0.0017001092209285784 -0.08614307063549465
vn -0.08488348261601344 -0.001676682771347134 -0.9963894736065116
vn 1 0 0
vn 0 0 1
vn -1 0 0
vn 0 0 -1
vn 0 -1 0
vn 0.010990650181702226 -0.9998792000210807 0.010990494701671195
vn 0 -0.9995020157750609 0.0315550386086009
vn 0 0 -1
vn -0.011067048489069801 -0.9998775138026424 0.011066970208113619
vn -0.031502120179870245 -0.9995036850478206 0
vn 0.010986095695019312 0.9998792958592364 -0.01098632847758739
vn 0 0.9995029808154402 -0.03152445623718418
vn -0.010979892893820788 0.9998794338324482 0.010979970443652237
vn 0 0.9995032454366518 0.03151606513510916
vn -0.08490702476036043 -0.001537993980640264 0.9963876914739861
vn -0.9962727130459846 -0.0015651554634719237 -0.08624518263861664
vn 0.9962679539157103 -0.001565147986825588 0.08630014085958045
vn 0.08497113428510307 -0.0015448210197009824 -0.9963822157517267
vn -0.010986957372356452 -0.9998792803349216 -0.010986879657911676
vn 0 -0.9995019285464023 -0.03155780144469522
vn 0.011057928962697857 0.9998777155939441 0.011057850862257319
vn 0.031464287476826565 0.9995048767321711 0.0000014776263419563074
vn -0.011048141954350601 0.9998779311089494 -0.011048141954350879
vn -0.03146549140442396 0.9995048388319563 0.0000014776262859262094
vn 0.011058917131438781 -0.9998776937375264 -0.011058838908551584
vn 0.031500915639285566 -0.9995037230115187 0
vn 0 -0.6448771467587898 -0.764286245845261
vn 0 0 1
vn -1 0 0
vn 1 0 0
vn -1 0 0
vn 0 -0.6448743090379406 0.764288640202665
vn -0.7607762260439181 -0.6490142786459889 0
vn 0.7607738384130237 -0.6490170774227092 0
vn 1 0 0
vn 0 0 -1
vn 0 0 1
vn 0 0 1
vn 0 1 0
vn 0 1 0
vn 0 1 0
vn 0 1 0
vn 0 1 0
vn -0.9999999999992737 0 0.0000012053653212188587
vn 1 0 0
vn 0 0 -1
vn -0.9962710972092496 -0.0015651529249745314 0.08626384620337597
vn 0.08492411816466315 -0.0015379917320355778 0.9963862347179363
vn 0.9962781665851679 -0.001565164031042375 -0.08618216200149807
vn -0.08492140621587008 -0.0015448275928001069 -0.9963864552843079
usemtl m_e0eafb43-9f8c-95e0-c2c4-8b1544b03ce1
f 2/1/1 3/2/1 4/3/1
f 5/4/2 6/5/2 3/6/2
f 7/7/3 8/8/3 6/9/3
f 9/10/4 4/11/4 8/12/4
f 6/13/5 4/14/5 3/15/5
f 9/16/6 10/17/6 11/18/6
f 12/19/7 13/20/7 14/21/7
f 2/22/8 15/23/8 1/24/8
f 16/25/9 17/26/9 18/27/9
f 14/28/10 19/29/10 20/30/10
f 21/31/11 18/32/11 17/33/11
f 10/34/12 22/35/12 23/36/12
f 24/37/13 25/38/13 26/39/13
f 15/40/14 20/41/14 19/42/14
f 5/43/15 24/44/15 27/45/15
f 12/46/16 23/47/16 22/48/16
f 28/49/17 26/50/17 25/51/17
f 7/52/18 21/53/18 29/54/18
f 13/55/19 30/56/19 31/57/19
f 28/58/20 32/59/20 16/60/20
f 16/61/21 33/62/21 12/63/21
f 14/64/22 34/65/22 28/66/22
f 35/67/23 36/68/23 30/69/23
f 34/70/24 35/71/24 32/72/24
f 32/73/25 30/74/25 33/75/25
f 13/76/26 37/77/26 34/78/26
f 31/79/27 38/80/27 37/81/27
f 30/82/28 39/83/28 31/84/28
f 37/85/29 40/86/29 35/87/29
f 41/88/30 42/89/30 43/90/30
f 41/91/31 39/92/31 44/93/31
f 43/94/32 38/95/32 41/96/32
f 45/97/33 40/98/33 43/99/33
f 44/100/34 36/101/34 45/102/34
f 46/103/35 47/104/35 48/105/35
f 43/106/36 46/107/36 45/108/36
f 44/109/37 47/110/37 41/111/37
f 45/112/38 48/113/38 44/114/38
f 22/115/39 21/116/39 17/117/39
f 18/118/40 24/119/40 26/120/40
f 25/121/41 15/122/41 19/123/41
f 20/124/42 10/125/42 23/126/42
f 2/127/43 5/128/43 3/129/43
f 5/130/44 7/131/44 6/132/44
f 7/133/45 9/134/45 8/135/45
f 9/136/46 2/137/46 4/138/46
f 6/139/47 8/140/47 4/141/47
f 15/142/48 2/143/48 11/144/48
f 2/145/49 9/146/49 11/147/49
f 12/148/50 33/149/50 13/150/50
f 24/151/51 5/152/51 1/153/51
f 5/154/52 2/155/52 1/156/52
f 26/157/53 28/158/53 18/159/53
f 28/160/54 16/161/54 18/162/54
f 23/163/55 12/164/55 20/165/55
f 12/166/56 14/167/56 20/168/56
f 21/169/57 27/170/57 18/171/57
f 10/172/58 29/173/58 22/174/58
f 24/175/59 1/176/59 25/177/59
f 15/178/60 11/179/60 20/180/60
f 21/181/61 7/182/61 27/183/61
f 7/184/62 5/185/62 27/186/62
f 17/187/63 16/188/63 22/189/63
f 16/190/64 12/191/64 22/192/64
f 19/193/65 14/194/65 25/195/65
f 14/196/66 28/197/66 25/198/66
f 10/199/67 9/200/67 29/201/67
f 9/202/68 7/203/68 29/204/68
f 13/205/69 33/206/69 30/207/69
f 28/208/70 34/209/70 32/210/70
f 16/211/71 32/212/71 33/213/71
f 14/214/72 13/215/72 34/216/72
f 35/217/73 40/218/73 36/219/73
f 34/220/74 37/221/74 35/222/74
f 32/223/75 35/224/75 30/225/75
f 13/226/76 31/227/76 37/228/76
f 31/229/77 39/230/77 38/231/77
f 30/232/78 36/233/78 39/234/78
f 37/235/79 38/236/79 40/237/79
f 41/238/80 47/239/80 42/240/80
f 41/241/81 38/242/81 39/243/81
f 43/244/82 40/245/82 38/246/82
f 45/247/83 36/248/83 40/249/83
f 44/250/84 39/251/84 36/252/84
f 46/253/85 42/254/85 47/255/85
f 43/256/86 42/257/86 46/258/86
f 44/259/87 48/260/87 47/261/87
f 45/262/88 46/263/88 48/264/88
f 22/265/89 29/266/89 21/267/89
f 18/268/90 27/269/90 24/270/90
f 25/271/91 1/272/91 15/273/91
f 20/274/92 11/275/92 10/276/92